<?xml version="1.0" encoding="utf-8"?>
<!-- Generator: Adobe Illustrator 18.0.0, SVG Export Plug-In . SVG Version: 6.00 Build 0)  -->
<!DOCTYPE svg PUBLIC "-//W3C//DTD SVG 1.1//EN" "http://www.w3.org/Graphics/SVG/1.1/DTD/svg11.dtd">
<svg version="1.1" id="Logo" xmlns="http://www.w3.org/2000/svg" xmlns:xlink="http://www.w3.org/1999/xlink" x="0px" y="0px"
	 viewBox="0 0 2120.6 661.7" enable-background="new 0 0 2120.6 661.7" xml:space="preserve">
<g>
	<g>
		<path fill="#4B5B96" d="M1870.1,90.2c0,0,0.1,0,0.3,0c0.2,0,0.5-0.1,0.9-0.1c0.8-0.1,1.9-0.1,3.3-0.1c2.9,0,7.1,0.3,12.5,0.9
			c5.4,0.7,12.1,1.8,19.8,3.5c7.7,1.6,16.5,3.8,26.3,6.5c4.9,1.3,10,2.9,15.4,4.4c2.7,0.9,5.4,1.7,8.1,2.7c1.4,0.5,2.8,1,4.2,1.6
			c0.7,0.3,1.4,0.5,2.2,0.8c0.7,0.3,1.4,0.6,2.1,0.9c1.4,0.6,2.9,1.2,4.3,1.8c1.5,0.6,2.9,1.3,4.4,1.9c3,1.3,5.9,2.8,8.9,4.2
			c5.9,3.1,12,6.4,18,10.3c12,7.8,24.1,17.4,35.1,29.2c5.6,5.9,10.6,12.3,15.6,19.2c4.9,6.8,9.6,14.1,14,21.8
			c4.3,7.7,8.3,15.8,11.8,24.3c0.8,2.1,1.7,4.3,2.5,6.5c0.7,2.2,1.5,4.4,2.2,6.7c1.4,4.5,2.5,9.3,3.4,13.9c1.8,9,3.9,18.4,5.5,28
			c1.6,9.6,2.9,19.5,3.6,29.6c1.4,20.2,0.5,41-2.4,62c-0.8,5.2-1.6,10.5-2.6,15.7c-0.5,2.6-1,5.2-1.6,7.9l-0.4,2l-0.5,2
			c-0.3,1.3-0.7,2.7-1,4c-2.9,10.8-7.4,21.1-12.2,30.9c-2.4,4.9-4.9,9.8-7.5,14.6l-1.9,3.7l-1.9,3.6c-1.4,2.4-2.8,5-4.2,7.4
			c-5.8,9.7-12.4,19-19.6,27.9c-14.5,17.7-31.8,33.3-50.6,46.9c-9.4,6.8-19.1,13.1-29,19.2l-1.9,1.1l-1.9,1.1l-3.7,2.2
			c-2.5,1.4-4.9,2.9-7.5,4.3l-7.8,4.2l-7.8,3.9c-10.5,5.2-21.2,9.9-32.1,14.2c-10.9,4.3-22,8.1-33.1,11.6
			c-22.3,7-44.9,12.5-67.4,17.7c-22.7,5.1-45.4,9-68.1,12.2c-11.3,1.6-22.7,2.9-34,3.9c-11.3,1.1-22.6,1.8-33.9,2.3
			c-11.2,0.5-22.5,0.6-33.6,0.2c-11.1-0.4-22.1-1.1-33-2c-21.7-1.8-43-4.5-63.7-8c-20.7-3.5-40.8-7.8-60.1-13.4
			c-9.7-2.9-19-5.9-28.2-9c-9.2-3.1-18.2-6.4-26.9-9.9c-17.5-6.9-34-14.5-49.6-22.1c-31.2-15.1-59.5-30-83.3-45.2
			c-6-3.8-11.7-7.6-17.1-11.4c-2.7-1.9-5.3-3.8-7.9-5.7c-2.6-1.9-5.1-3.7-7.5-5.5c-9.8-7.3-18.7-14.1-26.7-20.3
			c-8-6.2-15.1-11.8-21.3-16.6c-6.2-4.8-11.5-8.8-15.8-12c-4.3-3.3-7.6-5.8-9.9-7.4c-1.1-0.8-2-1.3-2.6-1.6
			c-0.3-0.1-0.5-0.2-0.6-0.2c0,0,0,0,0.1-0.1c0.1,0,0.1-0.1,0.1-0.1c-0.1,0.2-0.5,0.3-0.7,0.2s-0.3-0.5-0.2-0.7c0,0,0-0.1,0.2-0.2
			c0.1-0.1,0.3-0.2,0.5-0.2c0.3,0,0.6,0.1,1,0.2c0.7,0.3,1.7,0.8,2.9,1.5c2.4,1.4,5.9,3.7,10.4,6.8c4.4,3.1,9.9,7,16.2,11.7
			c6.3,4.7,13.6,10,21.7,16c8.1,6,17.2,12.5,27.1,19.5c5,3.5,10.2,7.2,15.6,10.8c5.4,3.7,11.1,7.3,17.1,10.9
			c23.9,14.5,52.3,28.6,83.7,43c15.7,7.2,32.2,14.3,49.6,20.7c8.7,3.2,17.6,6.2,26.7,9.1c9.1,2.9,18.5,5.7,27.9,8.3
			c19,5,38.8,8.8,59.3,11.8c20.4,3,41.5,5.3,62.9,6.8c10.7,0.7,21.5,1.2,32.4,1.4c10.9,0.2,21.7,0,32.8-0.6c2.7-0.1,5.5-0.3,8.3-0.5
			c2.8-0.2,5.5-0.3,8.3-0.6c2.8-0.2,5.5-0.4,8.3-0.6c2.8-0.3,5.5-0.5,8.3-0.8c11.1-1.1,22.3-2.3,33.4-3.8
			c11.2-1.5,22.4-3.2,33.6-5.2c5.6-1,11.2-2,16.7-3.1c2.8-0.5,5.6-1.1,8.3-1.7l4.2-0.9l4.2-0.9l4.2-1l4.1-1l8.4-2
			c5.6-1.4,11.1-2.8,16.7-4.2c11.1-2.9,22.1-6,32.9-9.5c10.9-3.5,21.6-7.3,32.2-11.5c10.6-4.2,20.9-8.8,31.1-13.8l7.6-3.8l7.4-4
			c2.5-1.3,4.9-2.8,7.4-4.2l3.7-2.1l1.8-1l1.8-1.1c9.7-5.8,19.1-11.9,28.2-18.4c18.1-13,34.8-27.5,48.7-44.1
			c7-8.3,13.3-17,18.9-26.1c1.4-2.3,2.7-4.5,4.1-6.8l2-3.6l1.9-3.5c2.6-4.8,5.1-9.5,7.5-14.3c4.8-9.5,9.1-19,11.8-28.7
			c0.3-1.2,0.7-2.4,1-3.7l0.5-1.9l0.4-1.9c0.6-2.5,1.2-5.1,1.7-7.6c1.1-5.1,2-10.1,2.8-15.2c3.2-20.2,4.4-40.3,3.4-59.8
			c-0.5-9.7-1.6-19.3-3-28.7c-1.4-9.4-3.3-18.6-5-27.9c-3.2-17.7-10.4-34.1-18.6-48.9c-8.3-14.8-18-28-28.2-39.6
			c-10.2-11.5-21.6-21-33-28.7c-5.7-3.9-11.5-7.2-17.2-10.3c-2.9-1.5-5.7-3-8.5-4.3c-1.4-0.7-2.8-1.3-4.2-2
			c-1.4-0.6-2.8-1.2-4.2-1.8c-0.7-0.3-1.4-0.6-2.1-0.9c-0.7-0.3-1.4-0.5-2-0.8c-1.4-0.5-2.7-1.1-4-1.6c-2.7-1-5.4-1.9-8-2.9
			c-5.2-1.7-10.3-3.5-15-5c-9.6-3.1-18.2-5.5-25.8-7.4c-7.6-1.9-14-3.3-19.3-4.2c-5.3-0.9-9.4-1.3-12.1-1.4c-1.4-0.1-2.4-0.1-3,0
			c-0.3,0-0.5,0-0.7,0c-0.2,0-0.3,0-0.3,0l-0.1,0c-0.8,0.1-1.5-0.5-1.6-1.3C1868.8,91,1869.4,90.3,1870.1,90.2z"/>
	</g>
	<g>
		<path fill="#7E89B3" d="M1877.4,88.2c0,0,0.4,0,1.1,0c0.7,0,1.8,0,3.3,0c2.9,0.1,7.1,0.3,12.5,0.9c10.9,1.2,26.9,3.9,46.6,9.5
			c4.9,1.4,10.1,3,15.5,4.8c1.3,0.4,2.7,0.9,4.1,1.3c1.5,0.5,2.7,1,4.1,1.5c1.4,0.5,2.8,1,4.2,1.6c1.4,0.6,2.9,1.2,4.3,1.7
			c2.9,1.1,5.8,2.5,8.7,3.8c1.5,0.7,2.9,1.4,4.4,2.1c1.5,0.7,3,1.4,4.5,2.2c1.5,0.8,3,1.6,4.5,2.4c1.5,0.8,3,1.7,4.5,2.6
			c1.5,0.8,3,1.8,4.5,2.7c1.5,0.9,3.1,1.8,4.5,2.9c12.1,7.9,24.2,17.7,35.1,29.7c2.7,3,5.4,6.1,8,9.5c1.2,1.6,2.5,3.2,3.7,5
			c1.2,1.7,2.5,3.5,3.6,5.3c4.7,7.1,9.1,14.6,13.2,22.5c4.1,7.9,7.8,16.2,11,24.8c0.8,2.2,1.6,4.3,2.4,6.6c0.4,1.1,0.7,2.2,1.1,3.3
			c0.3,1.1,0.7,2.3,1,3.4c0.7,2.2,1.3,4.6,1.9,6.9c0.3,1.2,0.6,2.3,0.8,3.5c0.3,1.2,0.6,2.3,0.8,3.5c0.5,2.4,0.9,4.7,1.4,7
			c0.4,2.3,0.9,4.7,1.3,7c0.9,4.7,1.7,9.5,2.4,14.4c1.4,9.7,2.4,19.7,2.9,29.9c0.9,20.3-0.3,41.2-3.4,62.3c-0.4,2.6-0.8,5.3-1.2,7.9
			c-0.5,2.6-0.9,5.3-1.4,7.9c-0.5,2.6-1,5.3-1.6,7.9l-0.8,4l-0.2,1.1l-0.2,1l-0.5,2c-0.7,2.8-1.5,5.5-2.3,8.2
			c-0.8,2.7-1.8,5.3-2.8,7.9c-2.1,5.2-4.4,10.3-6.8,15.3c-2.4,5-5,9.9-7.5,14.8l-1.9,3.7l-2,3.7c-1.3,2.4-2.7,5-4.2,7.4
			c-5.8,9.8-12.3,19.2-19.6,28.2c-14.5,17.9-31.9,33.8-50.7,47.5c-9.4,6.9-19.2,13.3-29.1,19.4l-1.9,1.1l-0.9,0.6l-1,0.6l-3.7,2.2
			l-3.7,2.2l-1.9,1.1l-2,1.1l-7.8,4.2l-7.9,4c-10.6,5.2-21.3,10-32.3,14.3c-11,4.3-22.1,8.2-33.3,11.7
			c-22.5,7.1-45.2,12.6-67.9,17.8c-22.9,5.1-45.8,9.1-68.6,12.2c-11.4,1.6-22.8,2.8-34.2,3.9c-2.8,0.3-5.7,0.5-8.5,0.8
			c-2.8,0.2-5.7,0.4-8.5,0.6c-2.8,0.2-5.7,0.3-8.5,0.5l-4.3,0.2l-4.3,0.2c-5.7,0.2-11.3,0.3-17,0.4c-2.8,0-5.7,0-8.5-0.1
			c-0.7,0-1.4,0-2.2,0l-2.1-0.1l-4.2-0.1c-11.3-0.4-22.3-1.2-33.2-2.1c-43.7-4-85.8-10.6-124.7-22c-2.4-0.7-4.8-1.5-7.2-2.2
			c-2.4-0.8-4.7-1.5-7.1-2.3c-4.7-1.5-9.4-3.1-14-4.7c-9.2-3.2-18.3-6.5-27.1-10.1c-17.6-7.1-34.1-14.8-49.8-22.5
			c-31.4-15.3-59.8-30.5-83.7-46c-6-3.8-11.7-7.8-17.1-11.7c-5.4-3.9-10.5-7.6-15.5-11.2c-9.9-7.2-19.1-13.8-27.2-19.9
			c-8.2-6.1-15.4-11.7-21.5-16.7c-6.1-5-11.2-9.5-15.3-13c-4.1-3.5-7.5-6-9.8-7.6c-1.2-0.8-2-1.5-2.6-2c-0.3-0.2-0.5-0.4-0.6-0.6
			c-0.1-0.1-0.2-0.2-0.2-0.2c-0.2-0.2-0.2-0.5,0-0.7c0.2-0.2,0.5-0.2,0.7,0l0,0c0,0,1,1,3.4,2.4c2.4,1.5,5.9,3.8,10.3,7.2
			c2.2,1.7,4.5,3.6,7.1,5.7c2.6,2.1,5.5,4.4,8.6,6.8c6.2,4.8,13.5,10.2,21.8,16.1c8.3,5.9,17.6,12.2,27.7,19.2
			c5.1,3.5,10.3,7.1,15.8,10.8c5.4,3.7,11.1,7.5,17.1,11.2c24,14.8,52.5,29.2,84.1,43.7c15.8,7.3,32.4,14.5,49.8,21.1
			c8.7,3.3,17.7,6.4,26.9,9.3c4.6,1.5,9.2,2.9,13.9,4.3c2.4,0.7,4.7,1.4,7.1,2.1c2.4,0.7,4.7,1.3,7.1,2c1.2,0.3,2.4,0.7,3.6,1
			c1.2,0.3,2.4,0.6,3.6,0.9c2.4,0.6,4.8,1.2,7.3,1.8c2.4,0.5,4.9,1.1,7.4,1.6c2.5,0.5,4.9,1.1,7.4,1.6c2.5,0.5,5,1,7.5,1.5
			c2.5,0.5,5,0.9,7.6,1.4c5.1,0.9,10.2,1.7,15.3,2.5c10.3,1.5,20.7,3,31.3,4.1c5.3,0.6,10.6,1.1,15.9,1.6c5.3,0.4,10.7,0.9,16.1,1.3
			c10.8,0.8,21.7,1.3,32.6,1.5l4.2,0.1l2.1,0h2c2.7,0,5.5,0,8.2,0c5.5-0.1,11-0.2,16.6-0.5c22.2-1.1,44.6-3.2,67.1-6.2
			c22.5-3,45.1-6.8,67.5-11.8l4.2-1l2.1-0.5l2.1-0.5l8.4-2c5.6-1.4,11.2-2.8,16.8-4.3c11.2-2.9,22.2-6.1,33.2-9.6
			c10.9-3.5,21.8-7.3,32.4-11.5c10.6-4.2,21-8.9,31.3-13.9l7.6-3.8l7.4-4l1.9-1l1.9-1.1l3.8-2.2l3.7-2.2l0.8-0.5l0.9-0.5l1.8-1.1
			c9.8-5.9,19.3-12,28.4-18.6c9.1-6.6,17.9-13.5,26-20.9c8.2-7.4,15.8-15.4,22.8-23.7c7-8.4,13.3-17.2,18.9-26.5
			c1.4-2.3,2.7-4.5,4.1-7l2-3.6l2-3.6c2.6-4.8,5.1-9.6,7.5-14.4c2.4-4.8,4.6-9.6,6.6-14.4c1-2.4,1.9-4.8,2.7-7.3
			c0.8-2.4,1.5-4.9,2.2-7.3c2.5-10.2,4.6-20.5,6.3-30.7c3.4-20.4,4.9-40.6,4.3-60.3c-0.3-9.8-1.1-19.5-2.3-29
			c-0.6-4.7-1.3-9.5-2.1-14.1c-0.4-2.3-0.8-4.7-1.2-7c-0.2-1.2-0.4-2.3-0.6-3.5c-0.2-1.2-0.4-2.2-0.7-3.4c-0.2-1.1-0.4-2.2-0.7-3.3
			c-0.3-1.1-0.5-2.2-0.8-3.3c-0.6-2.2-1.1-4.4-1.8-6.5c-0.3-1.1-0.7-2.2-1-3.2c-0.4-1.1-0.7-2.1-1.1-3.2c-0.7-2.1-1.5-4.2-2.2-6.3
			c-3.1-8.3-6.7-16.3-10.6-24c-3.9-7.6-8.1-14.9-12.6-21.7c-1.1-1.7-2.3-3.3-3.4-5c-1.2-1.6-2.4-3.3-3.6-4.9
			c-1.1-1.5-2.4-3.1-3.6-4.6c-1.2-1.6-2.5-3-3.7-4.5c-10.2-11.7-21.5-21.4-33-29.2c-11.5-7.8-23.1-13.9-34.2-18.7
			c-1.4-0.6-2.8-1.2-4.1-1.8c-1.4-0.6-2.8-1.1-4.1-1.6c-1.4-0.5-2.7-1.1-4-1.6c-1.3-0.5-2.7-1-4-1.5c-5.2-2-10.3-3.7-15.1-5.3
			c-19.2-6.2-34.8-9.5-45.5-11c-5.3-0.8-9.5-1.1-12.2-1.3c-1.4-0.1-2.4-0.1-3.1-0.1c-0.7,0-1,0-1,0l-0.1,0c-0.8,0-1.4-0.6-1.4-1.4
			C1876,88.9,1876.6,88.3,1877.4,88.2z"/>
	</g>
	<g>
		<path fill="#9CA7CE" d="M1866.4,86.8c0,0,1.5-0.3,4.4-0.6c2.9-0.3,7.2-0.6,12.9-0.7c11.3-0.1,27.9,0.7,48.6,5.1
			c5.2,1.1,10.6,2.4,16.2,4c5.6,1.6,11.5,3.5,17.5,5.6c3,1.1,6.1,2.2,9.1,3.5c0.8,0.3,1.5,0.6,2.3,0.9l0.6,0.2l0.6,0.3l1.1,0.5
			c1.5,0.7,3,1.4,4.6,2.1c1.5,0.7,3.1,1.5,4.7,2.3c1.6,0.8,3.2,1.5,4.8,2.4c1.6,0.8,3.2,1.6,4.8,2.5c1.6,0.9,3.2,1.8,4.8,2.7
			c12.9,7.2,26.2,16.1,38.5,27.6c6.1,5.7,12,12.1,17.4,19.1c5.5,7,10.4,14.5,14.9,22.5c4.5,8,8.6,16.3,12.4,25
			c3.8,8.7,7.2,17.7,10.2,27.2c1.5,4.7,2.8,9.6,3.9,14.5c0.5,2.5,1.1,5,1.4,7.6c0.4,2.6,0.7,5.1,1,7.5c0.7,4.8,1.4,9.9,2.1,14.9
			c0.7,5.1,1.2,10.2,1.7,15.4c1,10.4,1.5,20.9,1.5,31.6c0,5.4-0.1,10.8-0.4,16.2c-0.3,5.4-0.7,10.9-1.3,16.3
			c-1.1,10.9-2.9,21.9-5.4,32.9c-1.2,5.5-2.6,11-4.2,16.4c-1.4,5.5-3.1,11-4.9,16.4c-3.6,10.9-8,21.7-13.3,32.2l-1,2l-0.5,1
			l-0.3,0.6l-0.3,0.5l-2.1,3.7c-1.5,2.6-3.1,5.3-4.6,7.8c-3.2,5.1-6.6,10-10.2,14.8c-14.4,19.2-32.3,35.9-51.7,50.2
			c-9.7,7.2-19.7,13.9-29.8,20.3c-2.5,1.6-5.1,3.2-7.6,4.7l-3.8,2.3l-1.9,1.2l-1.1,0.6l-1,0.6l-7.7,4.4c-1.3,0.7-2.6,1.5-4,2.2
			l-4.1,2.2c-21.5,11.5-43.8,21-66.7,29.1c-22.8,8.1-46.1,14.6-69.2,20.5l-2.3,0.6l-2.2,0.5l-4.3,1c-2.9,0.7-6,1.3-8.9,2
			c-5.9,1.2-11.8,2.4-17.7,3.4c-11.8,2.1-23.5,3.9-35.3,5.5c-23.5,3.1-46.8,5.5-70,6.7c-11.6,0.6-23.2,1-34.8,0.9
			c-2.8,0-5.7-0.1-8.7-0.2c-2.9-0.1-5.8-0.3-8.6-0.4c-2.9-0.1-5.7-0.3-8.5-0.5c-2.8-0.2-5.7-0.4-8.5-0.7
			c-11.3-0.9-22.4-2.2-33.4-3.7c-11-1.4-21.8-3.2-32.5-5.1c-21.4-3.9-42.2-8.6-62.1-14.7c-5-1.5-9.8-3-14.7-4.6
			c-4.8-1.5-9.6-3.1-14.4-4.7c-9.5-3.1-18.9-6.4-28-9.9c-9.1-3.5-17.9-7.1-26.5-11c-8.6-3.8-16.8-7.8-24.9-11.8
			c-16.1-8.1-31-16.7-45-25.2c-14-8.5-26.9-17.1-38.9-25.4c-6-4.2-11.7-8.4-17.1-12.4c-5.5-4-10.7-7.9-15.8-11.6
			c-10.1-7.5-19.4-14.3-27.7-20.7c-8.3-6.3-15.6-12.2-21.8-17.4c-6.2-5.2-11.3-10-15.5-13.6c-4.2-3.7-7.5-6.3-9.8-8.2
			c-1.1-0.9-1.9-1.7-2.4-2.4c-0.2-0.3-0.4-0.6-0.5-0.8c-0.1-0.2-0.1-0.3-0.1-0.3c-0.1-0.3,0-0.6,0.2-0.7c0.2-0.1,0.5,0,0.7,0.2
			l0,0.1c0,0,0,0.1,0.1,0.2c0.1,0.1,0.2,0.4,0.4,0.6c0.4,0.5,1.2,1.3,2.3,2.2c2.2,1.8,5.7,4.4,10,8c4.3,3.6,9.5,8.1,15.8,13.2
			c6.3,5.1,13.7,10.7,22.1,16.8c8.5,6.1,17.9,12.6,28.3,19.7c5.2,3.5,10.6,7.2,16.2,11.1c5.6,3.9,11.4,7.7,17.5,11.6
			c24.5,15.3,53.6,30.4,85.7,45.3c8.1,3.7,16.4,7.4,24.8,11c8.5,3.6,17.1,7.1,26.1,10.5c8.9,3.3,18.1,6.5,27.5,9.5
			c4.7,1.5,9.5,3,14.3,4.4c4.8,1.5,9.7,3,14.5,4.3c19.4,5.5,39.8,9.5,60.8,12.8c10.5,1.6,21.2,3,32,4.1c5.4,0.6,10.8,1.1,16.3,1.6
			c5.5,0.4,10.9,0.9,16.4,1.2c2.8,0.2,5.5,0.3,8.3,0.5c2.8,0.1,5.5,0.3,8.3,0.4c2.8,0.1,5.6,0.2,8.3,0.2c2.7,0,5.4,0.1,8.3,0.1
			c11.1-0.1,22.4-0.6,33.7-1.3c11.3-0.8,22.7-1.8,34.2-3c11.5-1.2,22.9-2.6,34.5-4.2c11.5-1.6,23-3.5,34.5-5.5
			c5.7-1,11.5-2.2,17.1-3.4c2.8-0.6,5.6-1.2,8.4-1.9l4.3-1.1l2.2-0.5l2-0.5c22.8-6,45.4-12.6,67.5-20.6c11-4,21.9-8.3,32.6-13l8-3.6
			l7.9-3.8c2.6-1.2,5.2-2.6,7.8-3.9l3.9-2l3.8-2l3.8-2c1.3-0.7,2.5-1.3,3.8-2.1l7.7-4.5l1.8-1l1.9-1.1l3.8-2.3
			c2.5-1.5,5-3.1,7.4-4.6c9.9-6.2,19.5-12.6,28.6-19.3c18.3-13.6,34.9-28.8,48.5-46.1c3.4-4.3,6.6-8.8,9.5-13.3
			c1.5-2.3,2.9-4.5,4.3-6.8l2.1-3.7l0.3-0.5l0.2-0.4l0.5-0.9l1-1.8c5.3-9.6,10.1-19.4,14.3-29.4c2.1-5,4-10.1,5.7-15.2
			c1.6-5.1,3-10.3,4.3-15.5c2.5-10.4,4.4-20.8,5.7-31.2c1.3-10.4,2-20.8,2.1-31.1c0.2-10.3-0.2-20.5-1-30.5c-0.4-5-0.9-10-1.4-15
			c-0.6-5-1.2-9.9-1.8-14.9c-0.3-2.5-0.6-5-0.9-7.3c-0.3-2.3-0.8-4.6-1.2-6.9c-1-4.6-2.2-9.2-3.5-13.6c-5.4-18-12.7-34.9-21.2-50.2
			c-4.2-7.6-8.8-14.8-13.9-21.3c-5-6.6-10.5-12.5-16.2-18c-11.4-10.9-24-19.3-36.3-26.4c-1.6-0.9-3.1-1.7-4.6-2.6
			c-1.6-0.8-3.1-1.6-4.6-2.4c-1.5-0.8-3.1-1.6-4.6-2.3c-1.5-0.7-3-1.5-4.5-2.2c-3-1.4-6-2.8-8.9-4.2c-2.9-1.4-5.8-2.7-8.6-3.9
			c-5.7-2.4-11.2-4.6-16.6-6.5c-5.3-1.9-10.5-3.5-15.5-4.9c-19.8-5.5-36-7.4-47-8c-5.5-0.3-9.8-0.2-12.6-0.1
			c-2.9,0.1-4.3,0.3-4.3,0.3c-0.8,0.1-1.5-0.5-1.6-1.3C1865.1,87.7,1865.6,87,1866.4,86.8L1866.4,86.8z"/>
	</g>
	<g>
		<path fill="#7E89B3" d="M1869.9,85.3c0,0,1.6-0.2,4.5-0.4c2.9-0.2,7.3-0.4,13-0.3c11.3,0.2,28,1.6,48.5,6.7
			c5.1,1.3,10.5,2.8,16,4.6c5.6,1.8,11.3,3.8,17.2,6.2c5.9,2.4,12,5,18.2,8.1c3.1,1.4,6.2,3.1,9.4,4.8c3.1,1.7,6.3,3.5,9.5,5.4
			c12.7,7.5,25.4,17,37.2,28.8c5.9,5.9,11.5,12.3,16.9,19.2c2.7,3.5,5.3,6.9,7.8,10.7c2.5,3.7,4.8,7.6,7.1,11.5
			c4.5,7.9,8.7,16.2,12.5,24.9c3.8,8.7,7.2,17.6,10.2,27c1.5,4.7,2.8,9.5,3.9,14.4c0.6,2.4,1,4.9,1.5,7.5c0.2,1.3,0.4,2.5,0.5,3.8
			c0.2,1.2,0.3,2.5,0.5,3.7c1.4,9.8,2.9,20,3.9,30.3c2,20.7,1.9,42.2-0.6,64c-0.6,5.4-1.4,10.9-2.3,16.3c-1,5.4-2,10.9-3.2,16.3
			c-2.4,10.8-5.2,21.9-9.3,32.7c-4,10.7-8.8,21.2-14.1,31.5l-2,3.9l-2,3.8c-1.4,2.5-2.9,5.2-4.4,7.6c-3.1,5-6.3,9.9-9.8,14.7
			c-13.9,19.2-31.2,36.1-50.1,50.9c-9.5,7.3-19.4,14.2-29.5,20.6c-10.1,6.4-20.5,12.7-31.2,18.3c-21.5,11.3-44.2,20.2-67.1,27.7
			c-23,7.5-46.4,13.5-69.5,19.3l-8.8,2.1c-3,0.6-5.9,1.3-8.9,1.9c-2.9,0.6-5.9,1.2-8.8,1.7c-2.9,0.5-5.9,1.1-8.8,1.6
			c-11.8,2-23.5,3.8-35.3,5.3c-11.8,1.5-23.5,2.8-35.2,4c-11.7,1.1-23.3,2-34.9,2.6c-11.6,0.6-23.2,1-34.7,0.8
			c-11.6-0.2-22.9-0.9-34.2-1.8c-11.3-0.9-22.4-2.1-33.4-3.5c-2.8-0.3-5.5-0.7-8.2-1.1c-2.7-0.4-5.5-0.8-8.2-1.2
			c-5.4-0.9-10.8-1.7-16.2-2.7c-10.7-1.8-21.2-4-31.6-6.3c-5.2-1.3-10.3-2.4-15.4-3.8c-2.5-0.7-5.1-1.3-7.6-2.1
			c-2.5-0.7-5-1.5-7.5-2.2c-19.7-6.1-38.9-11.9-57.2-18.7c-18.3-6.8-35.5-14.5-51.7-22.4c-16.2-8-31.4-16.1-45.7-24.3
			c-14.3-8.2-27.5-16.4-39.7-24.6c-3.1-2-6-4.2-8.9-6.2c-2.9-2.1-5.7-4.1-8.5-6.1c-5.5-4-10.9-7.9-16-11.6
			c-10.2-7.5-19.5-14.5-27.8-21c-8.3-6.5-15.5-12.5-21.6-17.9c-1.5-1.3-3-2.6-4.4-3.9c-1.4-1.3-2.8-2.5-4-3.7
			c-2.5-2.4-4.8-4.6-6.8-6.6c-4-4-7-7-9-9.2c-1-1.1-1.7-2-2.1-2.8c-0.2-0.4-0.2-0.7-0.3-0.9c0-0.2-0.1-0.3-0.1-0.3
			c-0.1-0.3,0.1-0.5,0.4-0.6c0.3,0,0.5,0.1,0.6,0.4l0,0c0,0,0,0.1,0.1,0.3c0.1,0.2,0.1,0.4,0.3,0.7c0.3,0.5,1,1.3,2.1,2.3
			c2.1,2,5.4,4.7,9.6,8.4c4.3,3.7,9.5,8.2,15.7,13.4c6.2,5.3,13.5,11.1,21.8,17.5c8.3,6.3,17.7,13.2,27.9,20.5
			c5.2,3.7,10.5,7.5,16.1,11.4c5.6,3.9,11.3,8,17.4,12c12.1,8.1,25.3,16.1,39.5,24.2c14.2,8,29.5,16,45.6,23.8
			c16.2,7.8,33.2,15.2,51.3,21.8c18.1,6.6,37.3,12.3,57,18.2c2.5,0.7,4.9,1.4,7.4,2.1c2.5,0.7,5,1.3,7.5,2c5,1.4,10.1,2.5,15.2,3.7
			c10.3,2.2,20.7,4.3,31.3,6c5.3,0.9,10.7,1.7,16,2.5c2.7,0.4,5.4,0.7,8.1,1.1c2.7,0.4,5.4,0.7,8.2,1c10.9,1.3,21.9,2.4,33.1,3.2
			c11.1,0.8,22.4,1.4,33.7,1.5c11.3,0,22.7-0.4,34.2-1.1c11.5-0.7,23-1.7,34.6-2.9c11.6-1.2,23.2-2.6,34.8-4.2
			c11.6-1.7,23.3-3.5,34.9-5.6c2.9-0.6,5.8-1.1,8.7-1.7c2.9-0.6,5.8-1.2,8.7-1.8c2.9-0.6,5.7-1.3,8.6-1.9l8.6-2.2
			c23.1-6.1,46-12.7,68.3-20.8c22.3-8,44.1-17.5,64.8-28.5c2.6-1.4,5.2-2.8,7.7-4.2c2.5-1.4,5-2.9,7.6-4.4c5-3,10.1-6,15.1-9.2
			c9.9-6.3,19.6-12.7,28.9-19.7c9.3-6.9,18.2-14.3,26.4-22.2c8.3-7.9,15.9-16.3,22.9-25.2c3.5-4.5,6.7-9.1,9.8-13.8
			c1.6-2.4,3-4.7,4.4-7.1l2.2-3.7l2-3.6c5.4-9.9,10.3-20,14.4-30.2c1-2.6,2-5.1,2.9-7.7c0.5-1.3,0.9-2.6,1.3-3.8
			c0.4-1.3,0.8-2.6,1.2-4c1.5-5.2,2.9-10.6,4.2-15.9c1.3-5.3,2.4-10.6,3.4-15.9c0.9-5.3,1.9-10.6,2.5-15.9
			c1.4-10.6,2.2-21.1,2.4-31.6c0.2-10.4-0.2-20.8-1.1-30.9c-0.9-10.2-2.3-20.1-3.6-30.1c-0.1-1.2-0.3-2.5-0.4-3.7
			c-0.1-1.2-0.3-2.4-0.5-3.6c-0.4-2.4-0.8-4.8-1.4-7.1c-1-4.7-2.3-9.4-3.7-13.9c-2.8-9.1-6.1-18-9.8-26.5
			c-3.7-8.5-7.7-16.6-12.1-24.4c-2.2-3.9-4.5-7.6-6.9-11.2c-2.3-3.6-4.9-7.1-7.5-10.5c-5.1-6.8-10.5-13.1-16.2-18.8
			c-11.3-11.5-23.6-20.9-35.9-28.4c-3-1.9-6.2-3.6-9.2-5.4c-3.1-1.6-6.1-3.3-9.1-4.8c-6-3.1-12-5.7-17.8-8.2
			c-5.8-2.4-11.4-4.5-16.9-6.4c-5.4-1.9-10.7-3.4-15.7-4.7c-20.1-5.3-36.5-6.9-47.6-7.3c-5.6-0.2-9.8,0-12.7,0.1
			c-2.9,0.2-4.3,0.4-4.3,0.4c-0.8,0.1-1.5-0.4-1.6-1.2C1868.6,86.1,1869.1,85.4,1869.9,85.3L1869.9,85.3z"/>
	</g>
	<g>
		<path fill="#4B5B96" d="M1873.5,85.6c0,0,1.6-0.2,4.5-0.3c3-0.1,7.3-0.3,13,0c11.4,0.4,28.1,2,48.7,7.2c5.2,1.3,10.5,2.8,16.1,4.6
			c5.6,1.8,11.4,3.9,17.3,6.2c6,2.4,12.1,5,18.3,8.1c1.5,0.8,3.1,1.5,4.7,2.3c1.6,0.8,3.1,1.7,4.7,2.5c1.6,0.8,3.1,1.8,4.7,2.7
			c0.8,0.5,1.6,0.9,2.4,1.4c0.8,0.5,1.6,1,2.4,1.5c12.7,7.8,25.2,17.7,36.8,29.7c5.8,6,11.4,12.5,16.7,19.4c1.4,1.7,2.6,3.5,4,5.3
			l1,1.3l1,1.4c0.6,0.9,1.3,1.8,1.9,2.8c2.5,3.8,4.9,7.6,7.2,11.6c4.5,8,8.7,16.4,12.4,25.1c3.8,8.7,7.2,17.8,10.1,27.2
			c1.5,4.7,2.8,9.5,3.9,14.4c0.6,2.5,1.1,4.9,1.5,7.5c0.4,2.5,0.8,5.1,1.1,7.6c1.3,9.9,3,20.1,4,30.5c1.1,10.4,1.6,21,1.6,31.8
			c-0.1,10.8-0.7,21.7-2,32.6c-1.3,10.9-3.1,21.9-5.6,32.9c-1.2,5.5-2.6,10.9-4.1,16.4c-0.4,1.5-0.8,2.7-1.2,4.1
			c-0.4,1.4-0.9,2.8-1.3,4.2c-0.9,2.7-1.9,5.4-3,8.1c-4.2,10.7-9.3,21.1-14.7,31.4l-2.1,3.8l-2.1,3.8c-1.5,2.5-3,5.1-4.5,7.6
			c-3.1,5-6.5,9.9-10,14.6c-14.2,19-31.6,35.8-50.8,50.4c-9.6,7.3-19.5,14.1-29.7,20.6c-2.5,1.6-5.1,3.2-7.7,4.8l-3.9,2.3l-1,0.6
			l-1,0.6l-1.9,1.1l-7.8,4.5l-8.1,4.4c-10.8,5.7-21.7,10.9-32.9,15.7c-11.2,4.8-22.6,9.1-34,13.1c-23,8-46.3,14.5-69.7,20.4
			c-23.6,5.8-47.4,9.5-71,12.6c-23.7,3-47.2,5.3-70.6,6.5c-5.8,0.3-11.7,0.5-17.5,0.7c-2.9,0-5.9,0.1-8.8,0.1c-2.9,0-5.7,0-8.7-0.1
			c-11.7-0.3-23.1-1-34.4-2c-22.6-2-44.8-5-66.3-8.9c-1.3-0.2-2.7-0.5-4-0.7c-1.3-0.3-2.7-0.5-4-0.8c-2.7-0.5-5.3-1.1-8-1.6
			c-2.6-0.6-5.3-1.2-7.9-1.7c-1.3-0.3-2.6-0.6-3.9-0.9c-1.3-0.3-2.6-0.6-3.9-0.9c-2.6-0.6-5.2-1.3-7.8-1.9c-2.6-0.7-5.1-1.4-7.7-2.1
			c-1.3-0.3-2.6-0.7-3.8-1c-1.3-0.4-2.5-0.8-3.8-1.1c-2.5-0.8-5-1.5-7.5-2.3c-19.8-6.2-39.1-12.3-57.4-19.5
			c-18.3-7.1-35.5-15.1-51.7-23.1c-32.5-16.1-61.5-32.5-85.8-49.3c-1.5-1.1-3-2.1-4.5-3.2c-1.5-1.1-2.9-2.1-4.4-3.1
			c-2.9-2.1-5.7-4.1-8.5-6.2c-5.6-4-10.9-8-16-11.8c-10.2-7.6-19.5-14.8-27.6-21.5c-4.1-3.4-7.9-6.6-11.5-9.6
			c-3.6-3.1-6.9-5.9-10-8.7c-3.1-2.8-5.8-5.4-8.4-7.7c-2.5-2.4-4.8-4.5-6.9-6.5c-2-2-3.7-3.9-5.2-5.5c-1.4-1.6-2.6-3.1-3.5-4.3
			c-0.9-1.2-1.5-2.2-1.8-2.9c-0.3-0.7-0.5-1.1-0.5-1.1l0,0c-0.1-0.3,0.1-0.5,0.3-0.6c0.3-0.1,0.5,0.1,0.6,0.3c0,0,0.1,0.3,0.4,1
			c0.3,0.6,0.9,1.5,1.8,2.7c0.9,1.1,2,2.5,3.5,4.1c1.5,1.6,3.2,3.4,5.2,5.3c4.1,3.8,9.4,8.4,15.6,13.8c3.1,2.7,6.5,5.5,10.1,8.4
			c3.6,3,7.5,6.1,11.6,9.4c16.5,13,37.3,28,61.5,44.7c24.2,16.4,53.3,32.4,85.8,48.1c16.3,7.8,33.4,15.6,51.5,22.4
			c18.1,6.9,37.3,12.8,57.2,18.8c2.5,0.7,5,1.4,7.4,2.1c1.2,0.4,2.5,0.7,3.7,1.1c1.3,0.3,2.5,0.7,3.8,1c2.5,0.6,5.1,1.3,7.6,1.9
			c2.6,0.6,5.1,1.2,7.7,1.8c1.3,0.3,2.6,0.6,3.9,0.9c1.3,0.3,2.6,0.5,3.9,0.8c2.6,0.5,5.2,1.1,7.8,1.6c2.6,0.5,5.3,1,7.9,1.5
			c1.3,0.2,2.6,0.5,4,0.7c1.3,0.2,2.7,0.4,4,0.7c21.3,3.7,43.3,6.4,65.8,8.3c11.2,0.9,22.6,1.5,33.9,1.7c2.8,0.1,5.7,0,8.6,0
			c2.8-0.1,5.7-0.1,8.5-0.2c5.7-0.2,11.5-0.4,17.3-0.8c23.1-1.3,46.5-3.7,69.9-6.8c23.4-3.2,47-7,70.1-12.8
			c23.1-5.9,46.3-12.4,68.9-20.3c11.3-3.9,22.5-8.3,33.5-12.9c11-4.7,21.8-9.8,32.3-15.3l7.8-4.2l7.8-4.5l1.9-1.1l0.9-0.5l1-0.6
			l3.8-2.3c2.5-1.5,5.1-3.1,7.6-4.7c10-6.3,19.8-12.9,29.2-20c18.7-14.1,35.6-30.2,49.4-48.5c3.4-4.6,6.7-9.3,9.7-14
			c1.5-2.4,2.9-4.8,4.4-7.2l2.1-3.7l2-3.8c5.4-10,10.4-20.1,14.5-30.5c1-2.6,2-5.2,2.9-7.8c0.5-1.3,0.9-2.6,1.3-3.9
			c0.4-1.3,0.8-2.7,1.2-4c1.5-5.3,2.9-10.7,4.1-16c2.5-10.7,4.4-21.4,5.8-32.1c1.4-10.7,2.2-21.3,2.4-31.8
			c0.2-10.5-0.2-20.9-1.1-31.1c-0.9-10.3-2.3-20.3-3.6-30.4c-0.3-2.5-0.6-4.9-1-7.3c-0.4-2.4-0.9-4.8-1.4-7.2
			c-1.1-4.8-2.3-9.4-3.7-14c-2.8-9.2-6.1-18.1-9.7-26.7c-3.7-8.6-7.7-16.8-12-24.6c-2.2-3.9-4.5-7.7-6.9-11.3
			c-0.6-0.9-1.2-1.8-1.8-2.7l-0.9-1.3l-1-1.3c-1.3-1.8-2.5-3.5-3.8-5.2c-5.2-6.8-10.5-13.3-16.1-19.2
			c-11.2-11.8-23.3-21.6-35.6-29.4c-0.8-0.5-1.5-1-2.3-1.5c-0.8-0.5-1.5-0.9-2.3-1.4c-1.5-0.9-3-1.9-4.6-2.7
			c-1.5-0.8-3.1-1.7-4.6-2.5c-1.5-0.8-3.1-1.6-4.6-2.4c-6.1-3.1-12.1-5.8-17.9-8.2c-5.8-2.4-11.5-4.5-17-6.4
			c-5.5-1.8-10.8-3.4-15.8-4.8c-20.3-5.4-36.8-7.2-47.9-7.7c-5.6-0.3-9.9-0.2-12.8-0.1c-2.9,0.1-4.3,0.3-4.3,0.3
			c-0.8,0.1-1.5-0.5-1.6-1.3C1872.2,86.4,1872.7,85.7,1873.5,85.6L1873.5,85.6z"/>
	</g>
	<g>
		<path fill="#33426E" d="M1874.5,82c0,0,1.6-0.1,4.5-0.2c3-0.1,7.4,0,13.1,0.3c11.4,0.6,28.2,2.5,48.9,7.7
			c5.2,1.3,10.6,2.9,16.2,4.7c5.6,1.8,11.4,3.9,17.4,6.2c6,2.3,12.1,5,18.4,8c6.3,3,12.7,6.5,19,10.5c12.7,8,25.1,18.1,36.6,30.4
			c5.7,6.1,11.3,12.7,16.6,19.6c2.7,3.5,5.3,7,7.9,10.7c2.6,3.7,5,7.6,7.3,11.6c4.6,8,8.6,16.5,12.3,25.3c3.7,8.8,6.9,18,9.7,27.5
			c2.8,9.5,5.2,19.3,6.5,29.6c1.3,9.9,3,20.1,4.2,30.5c2.4,20.9,2.7,42.7,0.4,64.7c-1.2,11-3,22.1-5.4,33.1
			c-0.6,2.8-1.2,5.5-1.9,8.3c-0.7,2.8-1.4,5.5-2.1,8.3l-0.6,2.1l-0.6,2c-0.4,1.3-0.9,2.8-1.3,4.2c-0.9,2.8-1.9,5.5-2.9,8.2
			c-4.2,10.8-9.2,21.3-14.6,31.6l-2.1,3.9l-1.1,2l-1.1,1.9l-1.1,1.9l-1.1,1.9c-0.8,1.3-1.5,2.6-2.3,3.8c-3.1,5-6.4,10-10,14.8
			c-7.1,9.6-14.9,18.7-23.5,27.1c-8.5,8.5-17.7,16.3-27.3,23.7c-9.6,7.4-19.6,14.2-29.8,20.7c-2.6,1.6-5.1,3.2-7.7,4.8l-3.9,2.4
			l-2,1.2l-2,1.1l-7.8,4.5l-8.1,4.4c-10.8,5.7-21.8,11-33,15.8c-11.2,4.8-22.7,9.2-34.2,13.2c-23.1,8-46.5,14.5-70.1,20.5
			c-23.7,5.8-47.6,9.6-71.3,12.9c-11.9,1.6-23.7,2.9-35.5,4.1c-11.8,1.2-23.6,2.1-35.3,2.7c-2.9,0.2-5.9,0.3-8.8,0.4
			c-2.9,0.1-5.9,0.2-8.8,0.3c-2.9,0-5.8,0.1-8.8,0.1c-2.9,0-5.8,0-8.7-0.1c-11.7-0.3-23.2-1.1-34.6-2.1c-11.4-1-22.6-2.3-33.7-3.8
			c-11.1-1.6-22.1-3.2-32.9-5.3c-2.7-0.5-5.4-1-8.1-1.6c-2.7-0.5-5.4-1-8-1.6c-5.3-1.2-10.6-2.3-15.8-3.6
			c-10.5-2.4-20.7-5.4-30.7-8.5c-9.9-3.1-19.8-6.2-29.4-9.3c-9.6-3.2-19.1-6.5-28.3-10.1c-18.4-7.1-35.6-15.2-51.9-23.3
			c-16.3-8.1-31.7-16.3-46.1-24.6c-7.2-4.1-14.1-8.3-20.8-12.5c-6.7-4.2-13.1-8.4-19.1-12.7c-24.1-17.2-44.8-32.5-61.2-46
			c-16.4-13.5-28.6-24.9-36.8-32.8c-4.1-4-7-7.2-8.7-9.7c-0.9-1.3-1.3-2.4-1.4-3.2c-0.2-0.8-0.1-1.2-0.1-1.2l0-0.1
			c0-0.3,0.3-0.5,0.6-0.4c0.3,0,0.5,0.3,0.4,0.6c0,0,0,0.3,0.1,1c0.1,0.7,0.5,1.6,1.3,2.8c1.7,2.3,4.7,5.4,8.9,9.3
			c4.1,3.9,9.4,8.5,15.6,13.9c6.2,5.4,13.5,11.4,21.8,18c16.6,13.1,37.5,28.1,61.7,44.9c6,4.2,12.4,8.3,19.1,12.4
			c6.6,4.1,13.6,8.2,20.8,12.2c14.4,8.1,29.8,16.1,46.1,24c16.3,7.9,33.5,15.7,51.7,22.5c9.1,3.4,18.5,6.6,28.1,9.7
			c9.6,3.1,19.4,6,29.4,9c9.9,2.9,20,5.7,30.4,8c5.2,1.2,10.4,2.3,15.7,3.4c2.6,0.5,5.3,1,7.9,1.5c2.7,0.5,5.3,1,8,1.4
			c10.7,1.9,21.6,3.5,32.6,4.9c11,1.4,22.2,2.6,33.4,3.5c11.2,0.9,22.7,1.6,34,1.8c2.8,0.1,5.8,0,8.6,0.1c2.8,0,5.7-0.1,8.6-0.2
			c2.9,0,5.8-0.2,8.7-0.3c2.9-0.1,5.8-0.3,8.7-0.5c11.6-0.7,23.3-1.6,35-2.9c11.7-1.2,23.5-2.6,35.2-4.3
			c23.5-3.3,47.2-7.3,70.3-13.1c23.2-6,46.5-12.5,69.2-20.4c11.4-4,22.6-8.3,33.6-13c11-4.7,21.9-9.9,32.4-15.4l7.8-4.2l7.8-4.5
			l2-1.1l1.9-1.1l3.8-2.3c2.6-1.6,5.1-3.1,7.6-4.7c10.1-6.4,19.9-13,29.3-20.1c9.4-7.1,18.3-14.7,26.6-22.9
			c8.3-8.1,15.9-16.8,22.8-26c3.4-4.6,6.7-9.3,9.7-14.2c0.8-1.2,1.5-2.4,2.2-3.6l1.1-1.8l1.1-1.9l1.1-1.9l1-1.8l2-3.8
			c5.4-10.1,10.3-20.3,14.4-30.6c1-2.6,2-5.2,2.8-7.8c0.4-1.3,0.8-2.5,1.2-3.9l0.6-2l0.5-2c0.7-2.7,1.5-5.4,2.1-8.1
			c0.7-2.7,1.3-5.4,1.9-8.1c0.6-2.7,1.2-5.4,1.7-8.1c0.5-2.7,1.1-5.4,1.5-8.1c0.9-5.4,1.7-10.8,2.4-16.1c2.6-21.5,2.6-42.7,0.5-63.2
			c-1-10.3-2.6-20.3-3.8-30.5c-1.2-9.8-3.5-19.4-6.2-28.7c-2.7-9.3-5.9-18.3-9.4-27c-3.5-8.7-7.5-17-11.9-24.7
			c-2.2-3.9-4.5-7.6-7-11.2c-2.5-3.6-5.1-7.1-7.7-10.6c-5.2-6.9-10.5-13.4-16.1-19.4c-11.1-12.1-23.1-22.1-35.3-30
			c-12.2-7.9-24.7-13.6-36.5-18.5c-5.9-2.4-11.6-4.5-17.1-6.3c-5.5-1.8-10.8-3.4-15.9-4.8c-20.4-5.5-36.9-7.5-48.1-8.2
			c-5.6-0.4-9.9-0.5-12.8-0.4c-2.9,0-4.4,0.1-4.4,0.1c-0.8,0.1-1.5-0.5-1.5-1.3C1873.1,82.8,1873.7,82.1,1874.5,82L1874.5,82z"/>
	</g>
	<g>
		<path fill="#212A44" d="M1879.4,80.2c0,0,1.6-0.1,4.6-0.2c3-0.1,7.4,0,13.2,0.3c11.5,0.7,28.4,2.5,49.3,7.9
			c10.4,2.7,21.8,6.3,33.9,11.1c6,2.4,12.2,5.1,18.6,8.1c6.3,3.1,12.7,6.6,19.1,10.7c12.7,8.1,25.2,18.5,36.6,30.9
			c5.7,6.2,11.3,12.9,16.6,19.9c1.3,1.8,2.7,3.5,4,5.3c0.7,0.9,1.3,1.8,2,2.7c0.6,0.9,1.3,1.8,1.9,2.8c2.6,3.8,5,7.8,7.2,11.8
			c4.5,8.1,8.5,16.7,12.1,25.7c3.6,8.9,6.8,18.2,9.6,27.8c1.4,4.8,2.6,9.7,3.7,14.7c0.5,2.5,1,5,1.4,7.6c0.4,2.6,0.7,5.2,1.1,7.7
			c0.7,4.9,1.5,10.1,2.3,15.2c0.8,5.1,1.5,10.3,2.1,15.6c1.2,10.5,1.9,21.3,2,32.2c0.1,10.9-0.5,22-1.7,33.1
			c-1.2,11.1-3.1,22.2-5.6,33.3c-0.6,2.8-1.3,5.5-2,8.3c-0.7,2.8-1.4,5.5-2.2,8.3c-1.6,5.6-3.5,11.1-5.6,16.5
			c-4.2,10.9-9.2,21.5-14.7,31.9c-1.5,2.7-2.8,5.1-4.3,7.7c-1.5,2.6-3.1,5.1-4.6,7.6c-3.2,5-6.6,10-10.2,14.8
			c-14.3,19.3-31.6,36.6-50.7,51.7c-9.6,7.6-19.6,14.6-29.9,21.2c-2.6,1.6-5.2,3.3-7.8,4.8l-2,1.2l-2,1.1l-3.9,2.3l-3.9,2.3
			l-4.1,2.2c-2.7,1.5-5.4,3-8.1,4.4c-21.8,11.4-44.4,21.2-67.6,29.6c-23.2,8.4-46.7,15.5-70.5,21.3c-12,2.8-24,5.1-36,7.2
			c-12,2.1-24,3.8-36,5.4c-6,0.8-12,1.5-17.9,2.2c-6,0.6-11.9,1.3-17.9,1.9c-11.9,1.1-23.8,2.1-35.6,2.7c-3,0.2-5.9,0.3-8.9,0.4
			l-4.4,0.2l-4.4,0.1l-4.4,0.1l-1.1,0l-1.1,0l-2.2,0l-4.4,0l-4.4-0.1c-11.8-0.3-23.3-1.1-34.8-2.1c-11.5-1-22.8-2.3-34-3.7
			c-11.2-1.5-22.3-3.1-33.2-5.1c-10.9-2-21.7-4.1-32.2-6.6c-2.6-0.6-5.3-1.2-7.9-1.9c-2.6-0.7-5.2-1.4-7.8-2.1
			c-2.6-0.7-5.1-1.5-7.7-2.2c-2.5-0.8-5.1-1.5-7.6-2.3c-10-3.2-19.9-6.3-29.6-9.6c-9.7-3.3-19.2-6.7-28.4-10.4
			c-18.5-7.3-35.9-15.4-52.3-23.7c-16.4-8.4-31.8-17-46.1-25.6c-14.4-8.6-27.7-17.3-39.9-25.9c-12.1-8.7-23.3-17-33.5-24.9
			c-10.2-7.9-19.4-15.5-27.5-22.4c-8.1-7-15.2-13.4-21.3-19c-6.1-5.6-11.2-10.5-15.3-14.6c-2-2-3.8-3.9-5.3-5.5
			c-0.7-0.8-1.4-1.6-2-2.3c-0.6-0.8-1-1.5-1.4-2.2c-0.7-1.4-0.9-2.6-0.9-3.4c-0.1-0.8,0-1.2,0-1.2l0,0c0-0.3,0.3-0.6,0.6-0.5
			c0.3,0,0.6,0.3,0.5,0.6l0,0c0,0,0,0.4,0,1.1c0.1,0.7,0.2,1.8,0.9,3c0.3,0.6,0.7,1.3,1.3,2c0.6,0.7,1.3,1.4,2,2.2
			c1.5,1.6,3.3,3.4,5.3,5.3c4.1,4,9.3,8.7,15.5,14.2c6.2,5.5,13.4,11.7,21.7,18.5c16.5,13.6,37.2,29.1,61.6,46.1
			c12.2,8.5,25.5,16.9,39.9,25.3c14.4,8.4,29.8,16.8,46.1,25c16.4,8.1,33.8,15.9,52.1,23c9.2,3.5,18.6,6.8,28.3,10
			c9.7,3.2,19.6,6.2,29.6,9.2c2.5,0.8,5,1.5,7.5,2.2c2.5,0.7,5,1.5,7.6,2.1c2.6,0.6,5.1,1.3,7.7,1.9c2.6,0.7,5.2,1.2,7.8,1.8
			c10.4,2.4,21.1,4.4,31.9,6.2c10.8,1.8,21.8,3.4,32.9,4.8c11.1,1.3,22.4,2.5,33.7,3.4c11.4,0.9,22.9,1.5,34.4,1.8l4.3,0.1l4.4,0
			l2.2,0l1.1,0l1.1,0l4.3-0.1l4.4-0.1l4.4-0.2c2.9-0.1,5.8-0.2,8.8-0.4c11.7-0.7,23.5-1.7,35.3-2.9c5.9-0.6,11.8-1.3,17.7-1.9
			c5.9-0.7,11.9-1.4,17.8-2.3c11.9-1.6,23.8-3.4,35.6-5.5c11.9-2.1,23.7-4.4,35.4-7.2c23.4-5.9,46.8-12.9,69.6-21.2
			c11.4-4.1,22.7-8.7,33.8-13.5c11.1-4.9,22.1-10,32.7-15.6c2.7-1.4,5.3-2.8,7.9-4.3l3.9-2.1l3.9-2.3l3.9-2.3l2-1.1l1.9-1.1
			c2.6-1.5,5.1-3.1,7.7-4.7c10.1-6.4,19.9-13.2,29.3-20.5c18.7-14.6,35.5-31.3,49.5-49.8c3.5-4.6,6.8-9.4,9.9-14.2
			c1.5-2.4,3.1-4.9,4.5-7.3c1.4-2.4,2.9-5.1,4.3-7.5c5.5-10.1,10.4-20.4,14.5-30.9c2.1-5.3,3.9-10.5,5.4-15.9
			c0.8-2.6,1.5-5.4,2.2-8.1c0.7-2.7,1.4-5.4,2-8.1c2.5-10.8,4.5-21.7,5.8-32.5c1.4-10.8,2-21.6,2.1-32.2c0.1-10.6-0.5-21.2-1.6-31.5
			c-0.5-5.2-1.2-10.3-1.9-15.4c-0.7-5.1-1.5-10.2-2.1-15.3c-0.3-2.6-0.6-5-1-7.5c-0.4-2.4-0.8-4.9-1.3-7.3c-1-4.8-2.2-9.6-3.5-14.3
			c-2.6-9.4-5.8-18.5-9.2-27.3c-3.5-8.8-7.4-17.2-11.7-25.1c-2.2-3.9-4.5-7.8-6.9-11.4c-0.6-0.9-1.3-1.8-1.9-2.7
			c-0.6-0.9-1.3-1.8-1.9-2.7c-1.3-1.8-2.6-3.6-3.9-5.3c-5.2-7-10.6-13.6-16.1-19.7c-11.1-12.2-23.1-22.4-35.4-30.5
			c-6.1-4-12.4-7.5-18.5-10.6c-6.2-3-12.3-5.8-18.2-8.2c-11.8-4.9-23-8.5-33.3-11.3c-20.5-5.6-37.2-7.6-48.5-8.4
			c-5.7-0.4-10-0.5-13-0.5c-2.9,0-4.4,0.1-4.4,0.1c-0.8,0.1-1.5-0.5-1.5-1.3C1878,81,1878.6,80.3,1879.4,80.2L1879.4,80.2z"/>
	</g>
	<g>
		<path fill="#212A44" d="M1878,80.1c8.3,0,16.4,0.6,24.6,1.5c8.1,0.9,16.2,2,24.3,3.5c16.1,3,32,7.2,47.3,13.1
			c7.7,2.9,15.2,6.3,22.4,10.1l5.4,2.8c1.8,1,3.6,2,5.4,3c3.6,2,7.1,4.1,10.6,6.2c6.9,4.4,13.7,9.1,20,14.3
			c6.4,5.2,12.3,11,17.7,17.2c5.4,6.2,10.4,12.7,15.1,19.3c2.4,3.3,4.8,6.5,7.1,10c2.3,3.5,4.4,7,6.4,10.6c4,7.2,7.5,14.6,10.7,22.1
			c3.2,7.5,6,15.2,8.5,23c2.5,7.8,4.6,15.7,6.3,23.7c0.8,4,1.5,8.1,2,12.2c0.5,4,1.1,8,1.6,12c1.2,8,2.3,16.1,3.1,24.2
			c0.8,8.1,1.3,16.3,1.4,24.5c0.1,8.2-0.1,16.4-0.7,24.5c-0.6,8.2-1.5,16.3-2.8,24.3c-1.3,8.1-2.9,16.1-4.7,24
			c-1.9,7.9-4,15.8-6.7,23.6c-5.4,15.5-12.5,30.3-20.6,44.4c-8.2,14.2-17.6,27.6-28.3,40c-10.6,12.4-22.4,23.8-35,34.2
			c-12.6,10.4-26,19.7-40,28.1c-27.9,16.8-57.8,30.3-88.3,41.4c-15.3,5.6-30.8,10.5-46.4,15c-7.8,2.2-15.6,4.4-23.6,6.3l-5.9,1.4
			l-6,1.3c-4,0.9-8,1.6-12,2.4c-16,3-32.1,5.4-48.2,7.5c-16.1,2.1-32.3,3.8-48.5,5.1c-16.2,1.3-32.4,2.3-48.7,2.5
			c-16.3,0.1-32.6-0.8-48.7-2.2c-16.2-1.4-32.4-3.2-48.4-5.6c-16.1-2.4-32.1-5.3-48-8.9c-4-0.9-7.9-1.8-11.9-2.9l-5.9-1.5
			c-2-0.5-3.9-1.1-5.9-1.7l-5.9-1.7l-5.8-1.8l-11.6-3.6c-15.5-4.9-30.9-10.1-46-16.1c-15.1-6-29.9-12.7-44.5-19.8
			c-14.6-7.2-28.9-14.9-43-23c-7-4.1-14-8.2-20.9-12.5c-6.9-4.3-13.7-8.7-20.5-13.3c-6.7-4.6-13.3-9.3-19.9-14.1
			c-6.6-4.8-13.1-9.6-19.6-14.5c-12.9-9.8-25.6-20.1-37.8-30.7c-6.1-5.3-12.2-10.7-18.1-16.3c-3-2.8-5.9-5.6-8.7-8.6
			c-1.4-1.5-2.8-3-4.1-4.5c-0.7-0.8-1.3-1.6-2-2.4c-0.6-0.8-1.2-1.6-1.9-2.6l0.1,0.1c-0.7-0.9-1.2-2-1.4-3.2c-0.2-1.2-0.1-2.3,0-3.3
			c0-0.3,0.3-0.6,0.7-0.5c0.3,0,0.5,0.3,0.5,0.5c0.1,1,0.2,2.1,0.4,3c0.2,0.9,0.6,1.7,1.2,2.5l0,0l0,0.1c0.4,0.7,1.1,1.6,1.7,2.3
			c0.6,0.8,1.3,1.5,1.9,2.3c1.3,1.5,2.7,3,4.1,4.4c2.8,2.9,5.7,5.7,8.7,8.5c5.9,5.5,12,10.9,18.1,16.2
			c12.2,10.6,24.9,20.8,37.8,30.6c6.5,4.9,13,9.7,19.6,14.5c6.6,4.8,13.2,9.5,19.9,14c6.7,4.5,13.5,8.9,20.4,13.2
			c6.9,4.3,13.8,8.4,20.9,12.4c14.1,8.1,28.3,15.7,42.9,22.9c14.6,7.1,29.4,13.7,44.4,19.7c15,6,30.4,11.1,45.9,16l11.6,3.6l5.8,1.8
			l5.8,1.7c1.9,0.5,3.9,1.2,5.8,1.7l5.9,1.5c3.9,1.1,7.9,1.9,11.8,2.8c15.8,3.6,31.7,6.4,47.8,8.8c16,2.3,32.1,4.2,48.3,5.5
			c16.1,1.3,32.3,2.2,48.5,2.1c16.2-0.2,32.4-1.2,48.5-2.6c16.1-1.4,32.3-3.1,48.3-5.2c16.1-2.1,32.1-4.5,48-7.6
			c4-0.8,8-1.5,11.9-2.4l5.9-1.3l5.9-1.4c7.8-2,15.7-4.1,23.4-6.4c15.6-4.5,31-9.5,46.2-15c30.4-11.1,60-24.5,87.6-41.3
			c13.8-8.3,27.1-17.6,39.5-27.9c12.4-10.3,24-21.5,34.5-33.8c10.5-12.2,19.8-25.5,27.8-39.4c8-14,14.9-28.7,20.2-43.8
			c2.6-7.5,4.7-15.4,6.6-23.2c1.8-7.8,3.4-15.8,4.6-23.7c1.2-8,2.1-16,2.7-24c0.5-8,0.7-16.1,0.6-24.1c-0.2-8.1-0.6-16.1-1.5-24.1
			c-0.8-8-1.9-16-3.2-24c-0.6-4-1.2-8.1-1.7-12.1c-0.5-3.9-1.2-7.9-2-11.8c-1.6-7.8-3.8-15.6-6.2-23.3c-2.5-7.7-5.2-15.2-8.4-22.6
			c-3.1-7.4-6.6-14.7-10.5-21.7c-1.9-3.5-4-6.9-6.2-10.2c-2.2-3.3-4.6-6.6-7-9.8c-4.8-6.5-9.6-13-14.9-19c-5.3-6-11-11.6-17.2-16.6
			c-6.2-5.1-12.8-9.7-19.6-13.9c-3.5-2.1-6.9-4.2-10.4-6.1c-1.8-1-3.5-2-5.3-2.9l-5.4-2.8c-7.1-3.7-14.4-7-21.9-9.8
			c-15-5.7-30.6-9.9-46.4-12.8c-7.9-1.5-15.9-2.6-23.9-3.4c-8-0.8-16.1-1.4-24-1.4l-0.1,0c-1.4,0-2.5-1.1-2.5-2.5
			C1875.5,81.2,1876.6,80.1,1878,80.1L1878,80.1z"/>
	</g>
</g>
<g>
	<g>
		<path fill="#4B5B96" d="M250.5,571.5c0,0-0.1,0-0.3,0c-0.2,0-0.5,0.1-0.9,0.1c-0.8,0.1-1.9,0.1-3.3,0.1c-2.9,0-7.1-0.3-12.5-0.9
			c-5.4-0.7-12.1-1.8-19.8-3.5c-7.7-1.6-16.5-3.8-26.3-6.5c-4.9-1.3-10-2.9-15.4-4.4c-2.7-0.9-5.4-1.7-8.1-2.7
			c-1.4-0.5-2.8-1-4.2-1.6c-0.7-0.3-1.4-0.5-2.2-0.8c-0.7-0.3-1.4-0.6-2.1-0.9c-1.4-0.6-2.9-1.2-4.3-1.8c-1.5-0.6-2.9-1.3-4.4-1.9
			c-3-1.3-5.9-2.8-8.9-4.2c-5.9-3.1-12-6.4-18-10.3c-12-7.8-24.1-17.4-35.1-29.2c-5.6-5.9-10.6-12.3-15.6-19.2
			c-4.9-6.8-9.6-14.1-14-21.8c-4.3-7.7-8.3-15.8-11.8-24.3c-0.8-2.1-1.7-4.3-2.5-6.5c-0.7-2.2-1.5-4.4-2.2-6.7
			c-1.4-4.5-2.5-9.3-3.4-13.9c-1.8-9-3.9-18.4-5.5-28c-1.6-9.6-2.9-19.5-3.6-29.6c-1.4-20.2-0.5-41,2.4-62
			c0.8-5.2,1.6-10.5,2.6-15.7c0.5-2.6,1-5.2,1.6-7.9l0.4-2l0.5-2c0.3-1.3,0.7-2.7,1-4c2.9-10.8,7.4-21.1,12.2-30.9
			c2.4-4.9,4.9-9.8,7.5-14.6l1.9-3.7l1.9-3.6c1.4-2.4,2.8-5,4.2-7.4c5.8-9.7,12.4-19,19.6-27.9c14.5-17.7,31.8-33.3,50.6-46.9
			c9.4-6.8,19.1-13.1,29-19.2l1.9-1.1l1.9-1.1l3.7-2.2c2.5-1.4,4.9-2.9,7.5-4.3l7.8-4.2l7.8-3.9c10.5-5.2,21.2-9.9,32.1-14.2
			c10.9-4.3,22-8.1,33.1-11.6c22.3-7,44.9-12.5,67.4-17.7c22.7-5.1,45.4-9,68.1-12.2c11.3-1.6,22.7-2.9,34-3.9
			c11.3-1.1,22.6-1.8,33.9-2.3c11.2-0.5,22.5-0.6,33.6-0.2c11.1,0.4,22.1,1.1,33,2c21.7,1.8,43,4.5,63.7,8
			c20.7,3.5,40.8,7.8,60.1,13.4c9.7,2.9,19,5.9,28.2,9c9.2,3.1,18.2,6.4,26.9,9.9c17.5,6.9,34,14.5,49.6,22.1
			c31.2,15.1,59.5,30,83.3,45.2c6,3.8,11.7,7.6,17.1,11.4c2.7,1.9,5.3,3.8,7.9,5.7c2.6,1.9,5.1,3.7,7.5,5.5
			c9.8,7.3,18.7,14.1,26.7,20.3c8,6.2,15.1,11.8,21.3,16.6c6.2,4.8,11.5,8.8,15.8,12c4.3,3.3,7.6,5.8,9.9,7.4c1.1,0.8,2,1.3,2.6,1.6
			c0.3,0.1,0.5,0.2,0.6,0.2c0,0,0,0-0.1,0.1c-0.1,0-0.1,0.1-0.1,0.1c0.1-0.2,0.5-0.3,0.7-0.2c0.2,0.1,0.3,0.5,0.2,0.7
			c0,0,0,0.1-0.2,0.2c-0.1,0.1-0.3,0.2-0.5,0.2c-0.3,0-0.6-0.1-1-0.2c-0.7-0.3-1.7-0.8-2.9-1.5c-2.4-1.4-5.9-3.7-10.4-6.8
			c-4.4-3.1-9.9-7-16.2-11.7c-6.3-4.7-13.6-10-21.7-16c-8.1-6-17.2-12.5-27.1-19.5c-5-3.5-10.2-7.2-15.6-10.8
			c-5.4-3.7-11.1-7.3-17.1-10.9c-23.9-14.5-52.3-28.6-83.7-43c-15.7-7.2-32.2-14.3-49.6-20.7c-8.7-3.2-17.6-6.2-26.7-9.1
			c-9.1-2.9-18.5-5.7-27.9-8.3c-19-5-38.8-8.8-59.3-11.8c-20.4-3-41.5-5.3-62.9-6.8c-10.7-0.7-21.5-1.2-32.4-1.4
			c-10.9-0.2-21.7,0-32.8,0.6c-2.7,0.1-5.5,0.3-8.3,0.5c-2.8,0.2-5.5,0.3-8.3,0.6c-2.8,0.2-5.5,0.4-8.3,0.6
			c-2.8,0.3-5.5,0.5-8.3,0.8c-11.1,1.1-22.3,2.3-33.4,3.8c-11.2,1.5-22.4,3.2-33.6,5.2c-5.6,1-11.2,2-16.7,3.1
			c-2.8,0.5-5.6,1.1-8.3,1.7l-4.2,0.9l-4.2,0.9l-4.2,1l-4.1,1l-8.4,2c-5.6,1.4-11.1,2.8-16.7,4.2c-11.1,2.9-22.1,6-32.9,9.5
			c-10.9,3.5-21.6,7.3-32.2,11.5c-10.6,4.2-20.9,8.8-31.1,13.8l-7.6,3.8l-7.4,4c-2.5,1.3-4.9,2.8-7.4,4.2l-3.7,2.1l-1.8,1l-1.8,1.1
			c-9.7,5.8-19.1,11.9-28.2,18.4c-18.1,13-34.8,27.5-48.7,44.1c-7,8.3-13.3,17-18.9,26.1c-1.4,2.3-2.7,4.5-4.1,6.8l-2,3.6l-1.9,3.5
			c-2.6,4.8-5.1,9.5-7.5,14.3c-4.8,9.5-9.1,19-11.8,28.7c-0.3,1.2-0.7,2.4-1,3.7l-0.5,1.9l-0.4,1.9c-0.6,2.5-1.2,5.1-1.7,7.6
			c-1.1,5.1-2,10.1-2.8,15.2c-3.2,20.2-4.4,40.3-3.4,59.8c0.5,9.7,1.6,19.3,3,28.7c1.4,9.4,3.3,18.6,5,27.9
			c3.2,17.7,10.4,34.1,18.6,48.9c8.3,14.8,18,28,28.2,39.6c10.2,11.5,21.6,21,33,28.7c5.7,3.9,11.5,7.2,17.2,10.3
			c2.9,1.5,5.7,3,8.5,4.3c1.4,0.7,2.8,1.3,4.2,2c1.4,0.6,2.8,1.2,4.2,1.8c0.7,0.3,1.4,0.6,2.1,0.9c0.7,0.3,1.4,0.5,2,0.8
			c1.4,0.5,2.7,1.1,4,1.6c2.7,1,5.4,1.9,8,2.9c5.2,1.7,10.3,3.5,15,5c9.6,3.1,18.2,5.5,25.8,7.4c7.6,1.9,14,3.3,19.3,4.2
			c5.3,0.9,9.4,1.3,12.1,1.4c1.4,0.1,2.4,0.1,3,0c0.3,0,0.5,0,0.7,0c0.2,0,0.3,0,0.3,0l0.1,0c0.8-0.1,1.5,0.5,1.6,1.3
			C251.8,570.7,251.3,571.4,250.5,571.5z"/>
	</g>
	<g>
		<path fill="#7E89B3" d="M243.2,573.5c0,0-0.4,0-1.1,0c-0.7,0-1.8,0-3.3,0c-2.9-0.1-7.1-0.3-12.5-0.9c-10.9-1.2-26.9-3.9-46.6-9.5
			c-4.9-1.4-10.1-3-15.5-4.8c-1.3-0.4-2.7-0.9-4.1-1.3c-1.5-0.5-2.7-1-4.1-1.5c-1.4-0.5-2.8-1-4.2-1.6c-1.4-0.6-2.9-1.2-4.3-1.7
			c-2.9-1.1-5.8-2.5-8.7-3.8c-1.5-0.7-2.9-1.4-4.4-2.1c-1.5-0.7-3-1.4-4.5-2.2c-1.5-0.8-3-1.6-4.5-2.4c-1.5-0.8-3-1.7-4.5-2.6
			c-1.5-0.8-3-1.8-4.5-2.7c-1.5-0.9-3.1-1.8-4.5-2.9c-12.1-7.9-24.2-17.7-35.1-29.7c-2.7-3-5.4-6.1-8-9.5c-1.2-1.6-2.5-3.2-3.7-5
			c-1.2-1.7-2.5-3.5-3.6-5.3c-4.7-7.1-9.1-14.6-13.2-22.5c-4.1-7.9-7.8-16.2-11-24.8c-0.8-2.2-1.6-4.3-2.4-6.6
			c-0.4-1.1-0.7-2.2-1.1-3.3c-0.3-1.1-0.7-2.3-1-3.4c-0.7-2.2-1.3-4.6-1.9-6.9c-0.3-1.2-0.6-2.3-0.8-3.5c-0.3-1.2-0.6-2.3-0.8-3.5
			c-0.5-2.4-0.9-4.7-1.4-7c-0.4-2.3-0.9-4.7-1.3-7c-0.9-4.7-1.7-9.5-2.4-14.4c-1.4-9.7-2.4-19.7-2.9-29.9
			C20.2,331,21.4,310,24.5,289c0.4-2.6,0.8-5.3,1.2-7.9c0.5-2.6,0.9-5.3,1.4-7.9c0.5-2.6,1-5.3,1.6-7.9l0.8-4l0.2-1.1l0.2-1l0.5-2
			c0.7-2.8,1.5-5.5,2.3-8.2c0.8-2.7,1.8-5.3,2.8-7.9c2-5.2,4.4-10.3,6.8-15.3c2.4-5,5-9.9,7.5-14.8l1.9-3.7l2-3.7
			c1.3-2.4,2.7-5,4.2-7.4c5.8-9.8,12.3-19.2,19.6-28.2c14.5-17.9,31.9-33.8,50.7-47.5c9.4-6.9,19.2-13.3,29.1-19.4l1.9-1.1l0.9-0.6
			l1-0.6l3.7-2.2l3.7-2.2l1.9-1.1l2-1.1l7.8-4.2l7.9-4c10.6-5.2,21.3-10,32.3-14.3c11-4.3,22.1-8.2,33.3-11.7
			c22.5-7.1,45.2-12.6,67.9-17.8c22.9-5.1,45.8-9.1,68.6-12.2c11.4-1.6,22.8-2.8,34.2-3.9c2.8-0.3,5.7-0.5,8.5-0.8
			c2.8-0.2,5.7-0.4,8.5-0.6c2.8-0.2,5.7-0.3,8.5-0.5l4.3-0.2l4.3-0.2c5.7-0.2,11.3-0.3,17-0.4c2.8,0,5.7,0,8.5,0.1
			c0.7,0,1.4,0,2.2,0l2.1,0.1l4.2,0.1c11.3,0.4,22.3,1.2,33.2,2.1c43.7,4,85.8,10.6,124.7,22c2.4,0.7,4.8,1.5,7.2,2.2
			c2.4,0.8,4.7,1.5,7.1,2.3c4.7,1.5,9.4,3.1,14,4.7c9.2,3.2,18.3,6.5,27.1,10.1c17.6,7.1,34.1,14.8,49.8,22.5
			c31.4,15.3,59.8,30.5,83.7,46c6,3.8,11.7,7.8,17.1,11.7c5.4,3.9,10.5,7.6,15.5,11.2c9.9,7.2,19.1,13.8,27.2,19.9
			c8.2,6.1,15.4,11.7,21.5,16.7c6.1,5,11.2,9.5,15.3,13c4.1,3.5,7.5,6,9.8,7.6c1.2,0.8,2,1.5,2.6,2c0.3,0.2,0.5,0.4,0.6,0.6
			c0.1,0.1,0.2,0.2,0.2,0.2c0.2,0.2,0.2,0.5,0,0.7s-0.5,0.2-0.7,0l0,0c0,0-1-1-3.4-2.4c-2.4-1.5-5.9-3.8-10.3-7.2
			c-2.2-1.7-4.5-3.6-7.1-5.7c-2.6-2.1-5.5-4.4-8.6-6.8c-6.2-4.8-13.5-10.2-21.8-16.1c-8.3-5.9-17.6-12.2-27.7-19.2
			c-5.1-3.5-10.3-7.1-15.8-10.8c-5.4-3.7-11.1-7.5-17.1-11.2c-24-14.8-52.5-29.2-84.1-43.7c-15.8-7.3-32.4-14.5-49.8-21.1
			c-8.7-3.3-17.7-6.4-26.9-9.3c-4.6-1.5-9.2-2.9-13.9-4.3c-2.4-0.7-4.7-1.4-7.1-2.1c-2.4-0.7-4.7-1.3-7.1-2c-1.2-0.3-2.4-0.7-3.6-1
			c-1.2-0.3-2.4-0.6-3.6-0.9c-2.4-0.6-4.8-1.2-7.3-1.8c-2.4-0.5-4.9-1.1-7.4-1.6c-2.5-0.5-4.9-1.1-7.4-1.6c-2.5-0.5-5-1-7.5-1.5
			c-2.5-0.5-5-0.9-7.6-1.4c-5.1-0.9-10.2-1.7-15.3-2.5c-10.3-1.5-20.7-3-31.3-4.1c-5.3-0.6-10.6-1.1-15.9-1.6
			c-5.3-0.4-10.7-0.9-16.1-1.3c-10.8-0.8-21.7-1.3-32.6-1.5l-4.2-0.1l-2.1,0l-2,0c-2.7,0-5.5,0-8.2,0c-5.5,0.1-11,0.2-16.6,0.5
			c-22.2,1.1-44.6,3.2-67.1,6.2c-22.5,3-45.1,6.8-67.5,11.8l-4.2,1l-2.1,0.5l-2.1,0.5l-8.4,2c-5.6,1.4-11.2,2.8-16.8,4.3
			c-11.2,2.9-22.2,6.1-33.2,9.6c-10.9,3.5-21.8,7.3-32.4,11.5c-10.6,4.2-21,8.9-31.3,13.9l-7.6,3.8l-7.4,4l-1.9,1l-1.9,1.1l-3.8,2.2
			l-3.7,2.2l-0.8,0.5l-0.9,0.5l-1.8,1.1c-9.8,5.9-19.3,12-28.4,18.6c-9.1,6.6-17.9,13.5-26,20.9c-8.2,7.4-15.8,15.4-22.8,23.7
			c-7,8.4-13.3,17.2-18.9,26.5c-1.4,2.3-2.7,4.5-4.1,7l-2,3.6l-2,3.6c-2.6,4.8-5.1,9.6-7.5,14.4c-2.4,4.8-4.6,9.6-6.6,14.4
			c-1,2.4-1.9,4.8-2.7,7.3c-0.8,2.4-1.5,4.9-2.2,7.3c-2.5,10.2-4.6,20.5-6.3,30.7c-3.4,20.4-4.9,40.6-4.3,60.3
			c0.3,9.8,1.1,19.5,2.3,29c0.6,4.7,1.3,9.5,2.1,14.1c0.4,2.3,0.8,4.7,1.2,7c0.2,1.2,0.4,2.3,0.6,3.5c0.2,1.2,0.4,2.2,0.7,3.4
			c0.2,1.1,0.4,2.2,0.7,3.3c0.3,1.1,0.5,2.2,0.8,3.3c0.6,2.2,1.1,4.4,1.8,6.5c0.3,1.1,0.7,2.2,1,3.2c0.4,1.1,0.7,2.1,1.1,3.2
			c0.7,2.1,1.5,4.2,2.2,6.3c3.1,8.3,6.7,16.3,10.6,24c3.9,7.6,8.1,14.9,12.6,21.7c1.1,1.7,2.3,3.3,3.4,5c1.2,1.6,2.4,3.3,3.6,4.9
			c1.1,1.5,2.4,3.1,3.6,4.6c1.2,1.6,2.5,3,3.7,4.5c10.2,11.7,21.5,21.4,33,29.2c11.5,7.8,23.1,13.9,34.2,18.7
			c1.4,0.6,2.7,1.2,4.1,1.8c1.4,0.6,2.8,1.1,4.1,1.6c1.4,0.5,2.7,1.1,4,1.6c1.3,0.5,2.7,1,4,1.5c5.2,2,10.3,3.7,15.1,5.3
			c19.2,6.2,34.8,9.5,45.5,11c5.3,0.8,9.5,1.1,12.2,1.3c1.4,0.1,2.4,0.1,3.1,0.1c0.7,0,1,0,1,0l0.1,0c0.8,0,1.4,0.6,1.4,1.4
			C244.6,572.8,244,573.4,243.2,573.5z"/>
	</g>
	<g>
		<path fill="#9CA7CE" d="M254.3,574.9c0,0-1.5,0.3-4.4,0.6c-2.9,0.3-7.2,0.6-12.9,0.7c-11.3,0.1-27.9-0.7-48.6-5.1
			c-5.2-1.1-10.6-2.4-16.2-4c-5.6-1.6-11.5-3.5-17.5-5.6c-3-1.1-6.1-2.2-9.1-3.5c-0.8-0.3-1.5-0.6-2.3-0.9l-0.6-0.2l-0.6-0.3
			l-1.1-0.5c-1.5-0.7-3-1.4-4.6-2.1c-1.5-0.7-3.1-1.5-4.7-2.3c-1.6-0.8-3.2-1.5-4.8-2.4c-1.6-0.8-3.2-1.6-4.8-2.5
			c-1.6-0.9-3.2-1.8-4.8-2.7c-12.9-7.2-26.2-16.1-38.5-27.6c-6.1-5.7-12-12.1-17.4-19.1c-5.5-7-10.4-14.5-14.9-22.5
			c-4.5-8-8.6-16.3-12.4-25c-3.8-8.7-7.2-17.7-10.2-27.2c-1.5-4.7-2.8-9.6-3.9-14.5c-0.5-2.5-1.1-5-1.4-7.6c-0.4-2.6-0.7-5.1-1-7.5
			c-0.7-4.8-1.4-9.9-2.1-14.9c-0.7-5.1-1.2-10.2-1.7-15.4c-1-10.4-1.5-20.9-1.5-31.6c0-5.4,0.1-10.8,0.4-16.2
			c0.3-5.4,0.7-10.9,1.3-16.3c1.1-10.9,2.9-21.9,5.4-32.9c1.2-5.5,2.6-11,4.2-16.4c1.4-5.5,3.1-11,4.9-16.4
			c3.6-10.9,8-21.7,13.3-32.2l1-2l0.5-1l0.3-0.6l0.3-0.5l2.1-3.7c1.5-2.6,3.1-5.3,4.6-7.8c3.2-5.1,6.6-10,10.2-14.8
			c14.4-19.2,32.3-35.9,51.7-50.2c9.7-7.2,19.7-13.9,29.8-20.3c2.5-1.6,5.1-3.2,7.6-4.7l3.8-2.3l1.9-1.2l1.1-0.6l1-0.6l7.7-4.4
			c1.3-0.7,2.6-1.5,4-2.2l4.1-2.2c21.5-11.5,43.8-21,66.7-29.1c22.8-8.1,46.1-14.6,69.2-20.5l2.3-0.6l2.2-0.5l4.3-1
			c2.9-0.7,6-1.3,8.9-2c5.9-1.2,11.8-2.4,17.7-3.4c11.8-2.1,23.5-3.9,35.3-5.5c23.5-3.1,46.8-5.5,70-6.7c11.6-0.6,23.2-1,34.8-0.9
			c2.8,0,5.7,0.1,8.7,0.2c2.9,0.1,5.8,0.3,8.6,0.4c2.9,0.1,5.7,0.3,8.5,0.5c2.8,0.2,5.7,0.4,8.5,0.7c11.3,0.9,22.4,2.2,33.4,3.7
			c11,1.4,21.8,3.2,32.5,5.1c21.4,3.9,42.2,8.6,62.1,14.7c5,1.5,9.8,3,14.7,4.6c4.8,1.5,9.6,3.1,14.4,4.7c9.5,3.1,18.9,6.4,28,9.9
			c9.1,3.5,17.9,7.1,26.5,11c8.6,3.8,16.8,7.8,24.9,11.8c16.1,8.1,31,16.7,45,25.2c14,8.5,26.9,17.1,38.9,25.4
			c6,4.2,11.7,8.4,17.1,12.4c5.5,4,10.7,7.9,15.8,11.6c10.1,7.5,19.4,14.3,27.7,20.7c8.3,6.3,15.6,12.2,21.8,17.4
			c6.2,5.2,11.3,10,15.5,13.6c4.2,3.7,7.5,6.3,9.8,8.2c1.1,0.9,1.9,1.7,2.4,2.4c0.2,0.3,0.4,0.6,0.5,0.8c0.1,0.2,0.1,0.3,0.1,0.3
			c0.1,0.3,0,0.6-0.2,0.7c-0.2,0.1-0.5,0-0.7-0.2l0-0.1c0,0,0-0.1-0.1-0.2c-0.1-0.1-0.2-0.4-0.4-0.6c-0.4-0.5-1.2-1.3-2.3-2.2
			c-2.2-1.8-5.7-4.4-10-8c-4.3-3.6-9.5-8.1-15.8-13.2c-6.3-5.1-13.7-10.7-22.1-16.8c-8.5-6.1-17.9-12.6-28.3-19.7
			c-5.2-3.5-10.6-7.2-16.2-11.1c-5.6-3.9-11.4-7.7-17.5-11.6c-24.5-15.3-53.6-30.4-85.7-45.3c-8.1-3.7-16.4-7.4-24.8-11
			c-8.5-3.6-17.1-7.1-26.1-10.5c-8.9-3.3-18.1-6.5-27.5-9.5c-4.7-1.5-9.5-3-14.3-4.4c-4.8-1.5-9.7-3-14.5-4.3
			c-19.4-5.4-39.8-9.5-60.8-12.8c-10.5-1.6-21.2-3-32-4.1c-5.4-0.6-10.8-1.1-16.3-1.6c-5.5-0.4-10.9-0.9-16.4-1.2
			c-2.8-0.2-5.5-0.3-8.3-0.5c-2.8-0.1-5.5-0.3-8.3-0.4c-2.8-0.1-5.6-0.2-8.3-0.2c-2.7,0-5.4-0.1-8.3-0.1
			c-11.1,0.1-22.4,0.6-33.7,1.3c-11.3,0.8-22.7,1.8-34.2,3c-11.5,1.2-22.9,2.6-34.5,4.2c-11.5,1.6-23,3.5-34.5,5.5
			c-5.7,1-11.5,2.2-17.1,3.4c-2.8,0.6-5.6,1.2-8.4,1.9l-4.3,1.1l-2.2,0.5l-2,0.5c-22.8,6-45.4,12.6-67.5,20.6
			c-11,4-21.9,8.3-32.6,13l-8,3.6l-7.9,3.8c-2.6,1.2-5.2,2.6-7.8,3.9l-3.9,2l-3.8,2l-3.8,2c-1.3,0.7-2.5,1.3-3.8,2.1l-7.7,4.5
			l-1.8,1l-1.9,1.1l-3.8,2.3c-2.5,1.5-5,3.1-7.4,4.6c-9.9,6.2-19.5,12.6-28.6,19.3c-18.3,13.6-34.9,28.8-48.5,46.1
			c-3.4,4.3-6.6,8.8-9.5,13.3c-1.5,2.3-2.9,4.5-4.3,6.8l-2.1,3.7l-0.3,0.5l-0.2,0.4l-0.5,0.9l-1,1.8c-5.3,9.6-10.1,19.4-14.3,29.4
			c-2.1,5-4,10.1-5.7,15.2c-1.6,5.1-3,10.3-4.3,15.5c-2.5,10.4-4.4,20.8-5.7,31.2c-1.3,10.4-2,20.8-2.1,31.1
			c-0.2,10.3,0.2,20.5,1,30.5c0.4,5,0.9,10,1.4,15c0.6,5,1.2,9.9,1.8,14.9c0.3,2.5,0.6,5,0.9,7.3c0.3,2.3,0.8,4.6,1.2,6.9
			c1,4.6,2.2,9.2,3.5,13.6c5.4,18,12.7,34.9,21.2,50.2c4.2,7.6,8.8,14.8,13.9,21.3c5,6.6,10.5,12.5,16.2,18
			c11.4,10.9,24,19.3,36.3,26.4c1.6,0.9,3.1,1.7,4.6,2.6c1.6,0.8,3.1,1.6,4.6,2.4c1.5,0.8,3.1,1.6,4.6,2.3c1.5,0.7,3,1.5,4.5,2.2
			c3,1.4,6,2.8,8.9,4.2c2.9,1.4,5.8,2.7,8.6,3.9c5.7,2.4,11.2,4.6,16.6,6.5c5.3,1.9,10.5,3.5,15.5,4.9c19.8,5.5,36,7.4,47,8
			c5.5,0.3,9.8,0.2,12.6,0.1c2.9-0.1,4.3-0.3,4.3-0.3c0.8-0.1,1.5,0.5,1.6,1.3C255.5,574.1,255,574.7,254.3,574.9L254.3,574.9z"/>
	</g>
	<g>
		<path fill="#7E89B3" d="M250.7,576.4c0,0-1.6,0.2-4.5,0.4c-2.9,0.2-7.3,0.4-13,0.3c-11.3-0.2-28-1.6-48.5-6.7
			c-5.1-1.3-10.5-2.8-16-4.6c-5.6-1.8-11.3-3.8-17.2-6.2c-5.9-2.4-12-5-18.2-8.1c-3.1-1.4-6.2-3.1-9.4-4.8c-3.1-1.7-6.3-3.5-9.5-5.4
			c-12.7-7.5-25.4-17-37.2-28.8c-5.9-5.9-11.5-12.3-16.9-19.2c-2.7-3.5-5.3-6.9-7.8-10.7c-2.5-3.7-4.8-7.6-7.1-11.5
			c-4.5-7.9-8.7-16.2-12.5-24.9c-3.8-8.7-7.2-17.6-10.2-27c-1.5-4.7-2.8-9.5-3.9-14.4c-0.6-2.4-1-4.9-1.5-7.5
			c-0.2-1.3-0.4-2.5-0.5-3.8c-0.2-1.2-0.3-2.5-0.5-3.7c-1.4-9.8-2.9-20-3.9-30.3c-2-20.7-1.9-42.2,0.6-64c0.6-5.4,1.4-10.9,2.3-16.3
			c1-5.4,2-10.9,3.2-16.3c2.4-10.8,5.2-21.9,9.3-32.7c4-10.7,8.8-21.2,14.1-31.5l2-3.9l2-3.8c1.4-2.5,2.9-5.2,4.4-7.6
			c3.1-5,6.3-9.9,9.8-14.7c13.9-19.2,31.2-36.1,50.1-50.9c9.5-7.3,19.4-14.2,29.5-20.6c10.1-6.4,20.5-12.7,31.2-18.3
			c21.5-11.3,44.2-20.2,67.1-27.7c23-7.5,46.4-13.5,69.5-19.3L317,30c3-0.6,5.9-1.3,8.9-1.9c2.9-0.6,5.9-1.2,8.8-1.7
			c2.9-0.5,5.9-1.1,8.8-1.6c11.8-2,23.5-3.8,35.3-5.3c11.8-1.5,23.5-2.8,35.2-4c11.7-1.1,23.3-2,34.9-2.6c11.6-0.6,23.2-1,34.7-0.8
			c11.6,0.2,22.9,0.9,34.2,1.8c11.3,0.9,22.4,2.1,33.4,3.5c2.8,0.3,5.5,0.7,8.2,1.1c2.7,0.4,5.5,0.8,8.2,1.2
			c5.4,0.9,10.8,1.7,16.2,2.7c10.7,1.8,21.2,4,31.6,6.3c5.2,1.3,10.3,2.4,15.4,3.8c2.5,0.7,5.1,1.3,7.6,2.1c2.5,0.7,5,1.5,7.5,2.2
			c19.7,6.1,38.9,11.9,57.2,18.7c18.3,6.8,35.5,14.5,51.7,22.4c16.2,8,31.4,16.1,45.7,24.3c14.3,8.2,27.5,16.4,39.7,24.6
			c3.1,2,6,4.2,8.9,6.2c2.9,2.1,5.7,4.1,8.5,6.1c5.5,4,10.9,7.9,16,11.6c10.2,7.5,19.5,14.5,27.8,21c8.3,6.5,15.5,12.5,21.6,17.9
			c1.5,1.3,3,2.6,4.4,3.9c1.4,1.3,2.8,2.5,4,3.7c2.5,2.4,4.8,4.6,6.8,6.6c4,4,7,7,9,9.2c1,1.1,1.7,2,2.1,2.8
			c0.2,0.4,0.2,0.7,0.3,0.9c0,0.2,0.1,0.3,0.1,0.3c0.1,0.3-0.1,0.5-0.4,0.6c-0.3,0-0.5-0.1-0.6-0.4l0,0c0,0,0-0.1-0.1-0.3
			c-0.1-0.2-0.1-0.4-0.3-0.7c-0.3-0.5-1-1.3-2.1-2.3c-2.1-2-5.4-4.7-9.6-8.4c-4.3-3.7-9.5-8.2-15.7-13.4
			c-6.2-5.3-13.5-11.1-21.8-17.5c-8.3-6.3-17.7-13.2-27.9-20.5c-5.2-3.7-10.5-7.5-16.1-11.4c-5.6-3.9-11.3-8-17.4-12
			c-12.1-8.1-25.3-16.1-39.5-24.2c-14.2-8-29.5-16-45.6-23.8c-16.2-7.8-33.2-15.2-51.3-21.8c-18.1-6.6-37.3-12.3-57-18.2
			c-2.5-0.7-4.9-1.4-7.4-2.1c-2.5-0.7-5-1.3-7.5-2c-5-1.4-10.1-2.5-15.2-3.7c-10.3-2.2-20.7-4.3-31.3-6c-5.3-0.9-10.7-1.7-16-2.5
			c-2.7-0.4-5.4-0.7-8.1-1.1c-2.7-0.4-5.4-0.7-8.2-1c-10.9-1.3-21.9-2.4-33.1-3.2c-11.1-0.8-22.4-1.4-33.7-1.5
			c-11.3,0-22.7,0.4-34.2,1.1c-11.5,0.7-23,1.7-34.6,2.9c-11.6,1.2-23.2,2.6-34.8,4.2c-11.6,1.7-23.3,3.5-34.9,5.6
			c-2.9,0.6-5.8,1.1-8.7,1.7c-2.9,0.6-5.8,1.2-8.7,1.8c-2.9,0.6-5.7,1.3-8.6,1.9l-8.6,2.2c-23.1,6.1-46,12.7-68.3,20.8
			c-22.3,8-44.1,17.5-64.8,28.5c-2.6,1.4-5.2,2.8-7.7,4.2c-2.5,1.4-5,2.9-7.6,4.4c-5,3-10.1,6-15.1,9.2
			c-9.9,6.3-19.6,12.7-28.9,19.7c-9.3,6.9-18.2,14.3-26.4,22.2c-8.3,7.9-15.9,16.3-22.9,25.2c-3.5,4.5-6.7,9.1-9.8,13.8
			c-1.6,2.4-3,4.7-4.4,7.1l-2.2,3.7l-2,3.6c-5.4,9.9-10.3,20-14.4,30.2c-1,2.6-2,5.1-2.9,7.7c-0.5,1.3-0.9,2.6-1.3,3.8
			c-0.4,1.3-0.8,2.6-1.2,4c-1.5,5.2-2.9,10.6-4.2,15.9c-1.3,5.3-2.4,10.6-3.4,15.9c-0.9,5.3-1.9,10.6-2.5,15.9
			c-1.4,10.6-2.2,21.1-2.4,31.6c-0.2,10.4,0.2,20.8,1.1,30.9c0.9,10.2,2.3,20.1,3.6,30.1c0.1,1.2,0.3,2.5,0.4,3.7
			c0.1,1.2,0.3,2.4,0.5,3.6c0.4,2.4,0.8,4.8,1.4,7.1c1,4.7,2.3,9.4,3.7,13.9c2.8,9.1,6.1,18,9.8,26.5c3.7,8.5,7.7,16.6,12.1,24.4
			c2.2,3.9,4.5,7.6,6.8,11.2c2.3,3.6,4.9,7.1,7.5,10.5c5.1,6.8,10.5,13.1,16.2,18.8c11.3,11.5,23.6,20.9,35.9,28.4
			c3,1.9,6.2,3.6,9.2,5.4c3.1,1.6,6.1,3.3,9.1,4.8c6,3.1,12,5.7,17.8,8.2c5.8,2.4,11.4,4.5,16.9,6.4c5.4,1.9,10.7,3.4,15.7,4.7
			c20.1,5.3,36.5,6.9,47.6,7.3c5.6,0.2,9.8,0,12.7-0.1c2.9-0.2,4.3-0.4,4.3-0.4c0.8-0.1,1.5,0.4,1.6,1.2
			C252.1,575.6,251.5,576.3,250.7,576.4L250.7,576.4z"/>
	</g>
	<g>
		<path fill="#4B5B96" d="M247.1,576.1c0,0-1.6,0.2-4.5,0.3c-3,0.1-7.3,0.3-13,0c-11.4-0.4-28.1-2-48.7-7.2
			c-5.2-1.3-10.5-2.8-16.1-4.6c-5.6-1.8-11.4-3.9-17.3-6.2c-6-2.4-12.1-5-18.3-8.1c-1.5-0.8-3.1-1.5-4.7-2.3
			c-1.6-0.8-3.1-1.7-4.7-2.5c-1.6-0.8-3.1-1.8-4.7-2.7c-0.8-0.5-1.6-0.9-2.4-1.4c-0.8-0.5-1.6-1-2.4-1.5
			c-12.7-7.8-25.2-17.7-36.8-29.7c-5.8-6-11.4-12.5-16.7-19.4c-1.4-1.7-2.6-3.5-4-5.3l-1-1.3l-1-1.4c-0.6-0.9-1.3-1.8-1.9-2.8
			c-2.5-3.8-4.9-7.6-7.2-11.6c-4.5-8-8.7-16.4-12.4-25.1c-3.8-8.7-7.2-17.8-10.1-27.2c-1.5-4.7-2.8-9.5-3.9-14.4
			c-0.6-2.5-1.1-4.9-1.5-7.5c-0.4-2.5-0.8-5.1-1.1-7.6c-1.3-9.9-3-20.1-4-30.5c-1.1-10.4-1.6-21-1.6-31.8c0.1-10.8,0.7-21.7,2-32.6
			c1.3-10.9,3.1-21.9,5.6-32.9c1.2-5.5,2.6-10.9,4.1-16.4c0.4-1.5,0.8-2.7,1.2-4.1c0.4-1.4,0.9-2.8,1.3-4.2c0.9-2.7,1.9-5.4,3-8.1
			c4.2-10.7,9.3-21.1,14.7-31.4l2.1-3.8l2.1-3.8c1.5-2.5,3-5.1,4.5-7.6c3.1-5,6.5-9.9,10-14.6c14.2-19,31.6-35.8,50.8-50.4
			c9.6-7.3,19.5-14.1,29.7-20.6c2.5-1.6,5.1-3.2,7.7-4.8l3.9-2.3l1-0.6l1-0.6l1.9-1.1l7.8-4.5l8.1-4.4c10.8-5.7,21.7-10.9,32.9-15.7
			c11.2-4.8,22.6-9.1,34-13.1c23-8,46.3-14.5,69.7-20.4c23.6-5.8,47.4-9.5,71-12.6c23.7-3,47.2-5.3,70.6-6.5
			c5.8-0.3,11.7-0.5,17.5-0.7c2.9,0,5.9-0.1,8.8-0.1c2.9,0,5.7,0,8.7,0.1c11.7,0.3,23.1,1,34.4,2c22.6,2,44.8,5,66.3,8.9
			c1.3,0.2,2.7,0.5,4,0.7c1.3,0.3,2.7,0.5,4,0.8c2.7,0.5,5.3,1.1,8,1.6c2.6,0.6,5.3,1.2,7.9,1.7c1.3,0.3,2.6,0.6,3.9,0.9
			c1.3,0.3,2.6,0.6,3.9,0.9c2.6,0.6,5.2,1.3,7.8,1.9c2.6,0.7,5.1,1.4,7.7,2.1c1.3,0.3,2.6,0.7,3.8,1c1.3,0.4,2.5,0.8,3.8,1.1
			c2.5,0.8,5,1.5,7.5,2.3c19.8,6.2,39.1,12.3,57.4,19.5c18.3,7.1,35.5,15.1,51.7,23.1c32.5,16.1,61.5,32.5,85.8,49.3
			c1.5,1.1,3,2.1,4.5,3.2c1.5,1.1,2.9,2.1,4.4,3.1c2.9,2.1,5.7,4.1,8.5,6.2c5.6,4,10.9,8,16,11.8c10.2,7.6,19.5,14.8,27.6,21.5
			c4.1,3.4,7.9,6.6,11.5,9.6c3.6,3.1,6.9,5.9,10,8.7c3.1,2.8,5.8,5.4,8.4,7.7c2.5,2.4,4.8,4.5,6.9,6.5c2,2,3.7,3.9,5.2,5.5
			c1.4,1.6,2.6,3.1,3.5,4.3c0.9,1.2,1.5,2.2,1.8,2.9c0.3,0.7,0.5,1.1,0.5,1.1l0,0c0.1,0.3-0.1,0.5-0.3,0.6c-0.3,0.1-0.5-0.1-0.6-0.3
			c0,0-0.1-0.3-0.4-1c-0.3-0.6-0.9-1.5-1.8-2.7c-0.9-1.1-2-2.5-3.5-4.1c-1.5-1.6-3.2-3.4-5.2-5.3c-4.1-3.8-9.4-8.4-15.6-13.8
			c-3.1-2.7-6.5-5.5-10.1-8.4c-3.6-3-7.5-6.1-11.6-9.4c-16.5-13-37.3-28-61.5-44.7c-24.2-16.4-53.3-32.4-85.8-48.1
			c-16.3-7.8-33.4-15.6-51.5-22.4c-18.1-6.9-37.3-12.8-57.2-18.8c-2.5-0.7-5-1.4-7.4-2.1c-1.2-0.4-2.5-0.7-3.7-1.1
			c-1.3-0.3-2.5-0.7-3.8-1c-2.5-0.6-5.1-1.3-7.6-1.9c-2.6-0.6-5.1-1.2-7.7-1.8c-1.3-0.3-2.6-0.6-3.9-0.9c-1.3-0.3-2.6-0.5-3.9-0.8
			c-2.6-0.5-5.2-1.1-7.8-1.6c-2.6-0.5-5.3-1-7.9-1.5c-1.3-0.2-2.6-0.5-4-0.7c-1.3-0.2-2.7-0.4-4-0.7C561,20.5,539,17.8,516.6,16
			c-11.2-0.9-22.6-1.5-33.9-1.7c-2.8-0.1-5.7,0-8.6,0c-2.8,0.1-5.7,0.1-8.5,0.2c-5.7,0.2-11.5,0.4-17.3,0.8
			c-23.1,1.3-46.5,3.7-69.9,6.8c-23.4,3.2-47,7-70.1,12.8c-23.1,5.9-46.3,12.4-68.9,20.3c-11.3,3.9-22.5,8.3-33.5,12.9
			c-11,4.7-21.8,9.8-32.3,15.3l-7.8,4.2l-7.8,4.5l-1.9,1.1l-0.9,0.5l-1,0.6l-3.8,2.3c-2.5,1.5-5.1,3.1-7.6,4.7
			c-10,6.3-19.8,12.9-29.2,20c-18.7,14.1-35.6,30.2-49.4,48.5c-3.4,4.6-6.7,9.3-9.7,14c-1.5,2.4-2.9,4.8-4.4,7.2l-2.1,3.7l-2,3.8
			c-5.4,10-10.4,20.1-14.5,30.5c-1,2.6-2,5.2-2.9,7.8c-0.5,1.3-0.9,2.6-1.3,3.9c-0.4,1.3-0.8,2.7-1.2,4c-1.5,5.3-2.9,10.7-4.1,16
			c-2.5,10.7-4.4,21.4-5.8,32.1c-1.4,10.7-2.2,21.3-2.4,31.8c-0.2,10.5,0.2,20.9,1.1,31.1c0.9,10.3,2.3,20.3,3.6,30.4
			c0.3,2.5,0.6,4.9,1,7.3c0.4,2.4,0.9,4.8,1.4,7.2c1.1,4.8,2.3,9.4,3.7,14c2.8,9.2,6.1,18.1,9.7,26.7c3.7,8.6,7.7,16.8,12,24.6
			c2.2,3.9,4.5,7.7,6.9,11.3c0.6,0.9,1.2,1.8,1.8,2.7l0.9,1.3l1,1.3c1.3,1.8,2.5,3.5,3.8,5.2c5.2,6.8,10.5,13.3,16.1,19.2
			c11.2,11.8,23.3,21.6,35.6,29.4c0.8,0.5,1.5,1,2.3,1.5c0.8,0.5,1.5,0.9,2.3,1.4c1.5,0.9,3,1.9,4.6,2.7c1.5,0.8,3.1,1.7,4.6,2.5
			c1.5,0.8,3.1,1.6,4.6,2.4c6.1,3.1,12.1,5.8,17.9,8.2c5.8,2.4,11.5,4.5,17,6.4c5.5,1.8,10.8,3.4,15.8,4.8
			c20.3,5.4,36.8,7.2,47.9,7.7c5.6,0.3,9.9,0.2,12.8,0.1c2.9-0.1,4.3-0.3,4.3-0.3c0.8-0.1,1.5,0.5,1.6,1.3
			C248.5,575.4,247.9,576.1,247.1,576.1L247.1,576.1z"/>
	</g>
	<g>
		<path fill="#33426E" d="M246.2,579.7c0,0-1.6,0.1-4.5,0.2c-3,0.1-7.4,0-13.1-0.3c-11.4-0.6-28.2-2.5-48.9-7.7
			c-5.2-1.3-10.6-2.9-16.2-4.7c-5.6-1.8-11.4-3.9-17.4-6.2c-6-2.3-12.1-5-18.4-8c-6.3-3-12.7-6.5-19-10.5
			c-12.7-8-25.1-18.1-36.6-30.4c-5.7-6.1-11.3-12.7-16.6-19.6c-2.7-3.5-5.3-7-7.9-10.7c-2.6-3.7-5-7.6-7.3-11.6
			c-4.6-8-8.6-16.5-12.3-25.3c-3.7-8.8-6.9-18-9.7-27.5c-2.8-9.5-5.2-19.3-6.5-29.6c-1.3-9.9-3-20.1-4.2-30.5
			c-2.4-20.9-2.7-42.7-0.4-64.7c1.2-11,3-22.1,5.4-33.1c0.6-2.8,1.2-5.5,1.9-8.3c0.7-2.8,1.4-5.5,2.1-8.3l0.6-2.1l0.6-2
			c0.4-1.3,0.9-2.8,1.3-4.2c0.9-2.8,1.9-5.5,2.9-8.2c4.2-10.8,9.2-21.3,14.6-31.6l2.1-3.9l1.1-2l1.1-1.9l1.1-1.9l1.1-1.9
			c0.8-1.3,1.5-2.6,2.3-3.8c3.1-5,6.4-10,10-14.8c7.1-9.6,14.9-18.7,23.5-27.1c8.5-8.5,17.7-16.3,27.3-23.7
			c9.6-7.4,19.6-14.2,29.8-20.7c2.6-1.6,5.1-3.2,7.7-4.8l3.9-2.4l2-1.2l2-1.1l7.8-4.5l8.1-4.4c10.8-5.7,21.8-11,33-15.8
			c11.2-4.8,22.7-9.2,34.2-13.2c23.1-8,46.5-14.5,70.1-20.5c23.7-5.8,47.6-9.6,71.3-12.9c11.9-1.6,23.7-2.9,35.5-4.1
			C423,7,434.8,6.1,446.5,5.5c2.9-0.2,5.9-0.3,8.8-0.4c2.9-0.1,5.9-0.2,8.8-0.3c2.9,0,5.8-0.1,8.8-0.1c2.9,0,5.8,0,8.7,0.1
			c11.7,0.3,23.2,1.1,34.6,2.1c11.4,1,22.6,2.3,33.7,3.8C561,12.4,572,14,582.8,16c2.7,0.5,5.4,1,8.1,1.6c2.7,0.5,5.4,1,8,1.6
			c5.3,1.2,10.6,2.3,15.8,3.6c10.5,2.4,20.7,5.4,30.7,8.5c9.9,3.1,19.8,6.2,29.4,9.3c9.6,3.2,19.1,6.5,28.3,10.1
			c18.4,7.1,35.6,15.2,51.9,23.3c16.3,8.1,31.7,16.3,46.1,24.6c7.2,4.1,14.1,8.3,20.8,12.5c6.7,4.2,13.1,8.4,19.1,12.7
			c24.1,17.2,44.8,32.5,61.2,46c16.4,13.5,28.6,24.9,36.8,32.8c4.1,4,7,7.2,8.7,9.7c0.9,1.3,1.3,2.4,1.4,3.2
			c0.2,0.8,0.1,1.2,0.1,1.2l0,0.1c0,0.3-0.3,0.5-0.6,0.4c-0.3,0-0.5-0.3-0.4-0.6c0,0,0-0.3-0.1-1c-0.1-0.7-0.5-1.6-1.3-2.8
			c-1.7-2.3-4.7-5.4-8.9-9.3c-4.1-3.9-9.4-8.5-15.6-13.9c-6.2-5.4-13.5-11.4-21.8-18c-16.6-13.1-37.5-28.1-61.7-44.9
			c-6-4.2-12.4-8.3-19.1-12.4c-6.6-4.1-13.6-8.2-20.8-12.2c-14.4-8.1-29.8-16.1-46.1-24c-16.3-7.9-33.5-15.7-51.7-22.5
			c-9.1-3.4-18.5-6.6-28.1-9.7c-9.6-3.1-19.4-6-29.4-9c-9.9-2.9-20-5.7-30.4-8c-5.2-1.2-10.4-2.3-15.7-3.4c-2.6-0.5-5.3-1-7.9-1.5
			c-2.7-0.5-5.3-1-8-1.4c-10.7-1.9-21.6-3.5-32.6-4.9c-11-1.4-22.2-2.6-33.4-3.5c-11.2-0.9-22.7-1.6-34-1.8c-2.8-0.1-5.8,0-8.6-0.1
			c-2.8,0-5.7,0.1-8.6,0.2c-2.9,0-5.8,0.2-8.7,0.3c-2.9,0.1-5.8,0.3-8.7,0.5c-11.6,0.7-23.3,1.6-35,2.9c-11.7,1.2-23.5,2.6-35.2,4.3
			c-23.5,3.3-47.2,7.3-70.3,13.1c-23.2,6-46.5,12.5-69.2,20.4c-11.4,4-22.6,8.3-33.6,13c-11,4.7-21.9,9.9-32.4,15.4l-7.8,4.2
			l-7.8,4.5l-2,1.1l-1.9,1.1l-3.8,2.3c-2.6,1.6-5.1,3.1-7.6,4.7c-10.1,6.4-19.9,13-29.3,20.1c-9.4,7.1-18.3,14.7-26.6,22.9
			c-8.3,8.1-15.9,16.8-22.8,26c-3.4,4.6-6.7,9.3-9.7,14.2c-0.8,1.2-1.5,2.4-2.2,3.6l-1.1,1.8l-1.1,1.9l-1.1,1.9l-1,1.8l-2,3.8
			c-5.4,10.1-10.3,20.3-14.4,30.6c-1,2.6-2,5.2-2.8,7.8c-0.4,1.3-0.8,2.5-1.2,3.9l-0.6,2l-0.5,2c-0.7,2.7-1.5,5.4-2.1,8.1
			c-0.7,2.7-1.3,5.4-1.9,8.1c-0.6,2.7-1.2,5.4-1.7,8.1c-0.5,2.7-1.1,5.4-1.5,8.1c-0.9,5.4-1.7,10.8-2.4,16.1
			c-2.6,21.5-2.6,42.7-0.5,63.2c1,10.3,2.6,20.3,3.8,30.5c1.2,9.8,3.5,19.4,6.2,28.7c2.7,9.3,5.9,18.3,9.4,27
			c3.5,8.7,7.5,17,11.9,24.7c2.2,3.9,4.5,7.6,7,11.2c2.5,3.6,5.1,7.1,7.7,10.6c5.2,6.9,10.5,13.4,16.1,19.4
			c11.1,12.1,23.1,22.1,35.3,30c12.2,7.9,24.7,13.6,36.5,18.5c5.9,2.4,11.6,4.5,17.1,6.3c5.5,1.8,10.8,3.4,15.9,4.8
			c20.4,5.5,36.9,7.5,48.1,8.2c5.6,0.4,9.9,0.5,12.8,0.4c2.9,0,4.4-0.1,4.4-0.1c0.8-0.1,1.5,0.5,1.5,1.3
			C247.6,578.9,247,579.6,246.2,579.7L246.2,579.7z"/>
	</g>
	<g>
		<path fill="#212A44" d="M241.3,581.5c0,0-1.6,0.1-4.6,0.2c-3,0.1-7.4,0-13.2-0.3c-11.5-0.7-28.4-2.5-49.3-7.9
			c-10.4-2.7-21.8-6.3-33.9-11.1c-6-2.4-12.2-5.1-18.6-8.1c-6.3-3.1-12.7-6.6-19.1-10.7c-12.7-8.1-25.2-18.5-36.6-30.9
			c-5.7-6.2-11.3-12.9-16.6-19.9c-1.3-1.8-2.7-3.5-4-5.3c-0.7-0.9-1.3-1.8-2-2.7c-0.6-0.9-1.3-1.8-1.9-2.8c-2.6-3.8-5-7.8-7.2-11.8
			c-4.5-8.1-8.5-16.7-12.1-25.7c-3.6-8.9-6.8-18.2-9.6-27.8c-1.4-4.8-2.6-9.7-3.7-14.7c-0.5-2.5-1-5-1.4-7.6
			c-0.4-2.6-0.7-5.2-1.1-7.7c-0.7-4.9-1.5-10.1-2.3-15.2C3.4,366.5,2.6,361.3,2,356c-1.2-10.5-1.9-21.3-2-32.2
			c-0.1-10.9,0.5-22,1.7-33.1c1.2-11.1,3.1-22.2,5.6-33.3c0.6-2.8,1.3-5.5,2-8.3c0.7-2.8,1.4-5.5,2.2-8.3c1.6-5.6,3.5-11.1,5.6-16.5
			c4.2-10.9,9.2-21.5,14.7-31.9c1.5-2.7,2.8-5.1,4.3-7.7c1.5-2.6,3.1-5.1,4.6-7.6c3.2-5,6.6-10,10.2-14.8
			c14.3-19.3,31.6-36.6,50.7-51.7c9.6-7.6,19.6-14.6,29.9-21.2c2.6-1.6,5.2-3.3,7.8-4.8l2-1.2l2-1.1l3.9-2.3l3.9-2.3l4.1-2.2
			c2.7-1.5,5.4-3,8.1-4.4c21.8-11.4,44.4-21.2,67.6-29.6c23.2-8.4,46.7-15.5,70.5-21.3c12-2.8,24-5.1,36-7.2c12-2.1,24-3.8,36-5.4
			c6-0.8,12-1.5,17.9-2.2c6-0.6,11.9-1.3,17.9-1.9c11.9-1.1,23.8-2.1,35.6-2.7c3-0.2,5.9-0.3,8.9-0.4l4.4-0.2l4.4-0.1l4.4-0.1l1.1,0
			l1.1,0l2.2,0l4.4,0l4.4,0.1c11.8,0.3,23.3,1.1,34.8,2.1c11.5,1,22.8,2.3,34,3.7c11.2,1.5,22.3,3.1,33.2,5.1
			c10.9,2,21.7,4.1,32.2,6.6c2.6,0.6,5.3,1.2,7.9,1.9c2.6,0.7,5.2,1.4,7.8,2.1c2.6,0.7,5.1,1.5,7.7,2.2c2.5,0.8,5.1,1.5,7.6,2.3
			c10,3.2,19.9,6.3,29.6,9.6c9.7,3.3,19.2,6.7,28.4,10.4c18.5,7.3,35.9,15.4,52.3,23.7c16.4,8.4,31.8,17,46.1,25.6
			c14.4,8.6,27.7,17.3,39.9,25.9c12.1,8.7,23.3,17,33.5,24.9c10.2,7.9,19.4,15.5,27.5,22.4c8.1,7,15.2,13.4,21.3,19
			c6.1,5.6,11.2,10.5,15.3,14.6c2,2,3.8,3.9,5.3,5.5c0.7,0.8,1.4,1.6,2,2.3c0.6,0.8,1,1.5,1.4,2.2c0.7,1.4,0.9,2.6,0.9,3.4
			c0.1,0.8,0,1.2,0,1.2l0,0c0,0.3-0.3,0.6-0.6,0.5c-0.3,0-0.6-0.3-0.5-0.6l0,0c0,0,0-0.4,0-1.1c-0.1-0.7-0.2-1.8-0.9-3
			c-0.3-0.6-0.7-1.3-1.3-2c-0.6-0.7-1.3-1.4-2-2.2c-1.5-1.6-3.3-3.4-5.3-5.3c-4.1-4-9.3-8.7-15.5-14.2c-6.2-5.5-13.4-11.7-21.7-18.5
			c-16.5-13.6-37.2-29.1-61.6-46.1c-12.2-8.5-25.5-16.9-39.9-25.3c-14.4-8.4-29.8-16.8-46.1-25c-16.4-8.1-33.8-15.9-52.1-23
			c-9.2-3.5-18.6-6.8-28.3-10c-9.7-3.2-19.6-6.2-29.6-9.2c-2.5-0.8-5-1.5-7.5-2.2c-2.5-0.7-5-1.5-7.6-2.1c-2.6-0.6-5.1-1.3-7.7-1.9
			c-2.6-0.7-5.2-1.2-7.8-1.8c-10.4-2.4-21.1-4.4-31.9-6.2c-10.8-1.8-21.8-3.4-32.9-4.8c-11.1-1.3-22.4-2.5-33.7-3.4
			c-11.4-0.9-22.9-1.5-34.4-1.8L476,7.7l-4.4,0l-2.2,0l-1.1,0l-1.1,0L463,7.9L458.6,8l-4.4,0.2c-2.9,0.1-5.8,0.2-8.8,0.4
			c-11.7,0.7-23.5,1.7-35.3,2.9c-5.9,0.6-11.8,1.3-17.7,1.9c-5.9,0.7-11.9,1.4-17.8,2.3c-11.9,1.6-23.8,3.4-35.6,5.5
			c-11.9,2.1-23.7,4.4-35.4,7.2c-23.4,5.9-46.8,12.9-69.6,21.2c-11.4,4.1-22.7,8.7-33.8,13.5c-11.1,4.9-22.1,10-32.7,15.6
			c-2.7,1.4-5.3,2.8-7.9,4.3l-3.9,2.1l-3.9,2.3l-3.9,2.3l-2,1.1L144,92c-2.6,1.5-5.1,3.1-7.7,4.7c-10.1,6.4-19.9,13.2-29.3,20.5
			c-18.7,14.6-35.5,31.3-49.5,49.8c-3.5,4.6-6.8,9.4-9.9,14.2c-1.5,2.4-3.1,4.9-4.5,7.3c-1.4,2.4-2.9,5.1-4.3,7.5
			c-5.5,10.1-10.4,20.4-14.5,30.9c-2.1,5.3-3.9,10.5-5.4,15.9c-0.8,2.6-1.5,5.4-2.2,8.1c-0.7,2.7-1.4,5.4-2,8.1
			c-2.5,10.8-4.5,21.7-5.8,32.5c-1.4,10.8-2,21.6-2.1,32.2c-0.1,10.6,0.5,21.2,1.6,31.5c0.5,5.2,1.2,10.3,1.9,15.4
			c0.7,5.1,1.5,10.2,2.1,15.3c0.3,2.6,0.6,5,1,7.5c0.4,2.4,0.8,4.9,1.3,7.3c1,4.8,2.2,9.6,3.5,14.3c2.6,9.4,5.8,18.5,9.2,27.3
			c3.5,8.8,7.4,17.2,11.7,25.1c2.2,3.9,4.5,7.8,6.9,11.4c0.6,0.9,1.3,1.8,1.9,2.7c0.6,0.9,1.3,1.8,1.9,2.7c1.3,1.8,2.6,3.6,3.9,5.3
			c5.2,7,10.6,13.6,16.1,19.7c11.1,12.2,23.1,22.4,35.4,30.5c6.1,4,12.4,7.5,18.5,10.6c6.2,3,12.3,5.8,18.2,8.2
			c11.8,4.9,23,8.5,33.3,11.3c20.5,5.6,37.2,7.6,48.5,8.4c5.7,0.4,10,0.5,13,0.5c2.9,0,4.4-0.1,4.4-0.1c0.8-0.1,1.5,0.5,1.5,1.3
			C242.7,580.7,242.1,581.4,241.3,581.5L241.3,581.5z"/>
	</g>
	<g>
		<path fill="#212A44" d="M242.6,581.6c-8.3,0-16.4-0.6-24.6-1.5c-8.1-0.9-16.2-2-24.3-3.5c-16.1-3-32-7.2-47.3-13.1
			c-7.7-2.9-15.2-6.3-22.4-10.1l-5.4-2.8c-1.8-1-3.6-2-5.4-3c-3.6-2-7.1-4.1-10.6-6.2c-6.9-4.4-13.7-9.1-20-14.3
			c-6.4-5.2-12.3-11-17.7-17.2c-5.4-6.2-10.4-12.7-15.1-19.3c-2.4-3.3-4.8-6.5-7.1-10c-2.3-3.5-4.4-7-6.4-10.6
			c-4-7.2-7.5-14.6-10.7-22.1c-3.2-7.5-6-15.2-8.5-23c-2.5-7.8-4.6-15.7-6.3-23.7c-0.8-4-1.5-8.1-2-12.2c-0.5-4-1.1-8-1.6-12
			c-1.2-8-2.3-16.1-3.1-24.2c-0.8-8.1-1.3-16.3-1.4-24.5c-0.1-8.2,0.1-16.4,0.7-24.5c0.6-8.2,1.5-16.3,2.8-24.3
			c1.3-8.1,2.9-16.1,4.7-24c1.9-7.9,4-15.8,6.7-23.6c5.4-15.5,12.5-30.3,20.5-44.4c8.2-14.2,17.6-27.6,28.3-40
			c10.6-12.4,22.4-23.8,35-34.2c12.6-10.4,26-19.7,40-28.1c27.9-16.8,57.8-30.3,88.3-41.4c15.3-5.6,30.8-10.5,46.4-15
			c7.8-2.2,15.6-4.4,23.6-6.3l5.9-1.4l6-1.3c4-0.9,8-1.6,12-2.4c16-3,32.1-5.4,48.2-7.5c16.1-2.1,32.3-3.8,48.5-5.1
			c16.2-1.3,32.4-2.3,48.7-2.5c16.3-0.1,32.6,0.8,48.7,2.2c16.2,1.4,32.4,3.2,48.4,5.6c16.1,2.4,32.1,5.3,48,8.9
			c4,0.9,7.9,1.8,11.9,2.9l5.9,1.5c2,0.5,3.9,1.1,5.9,1.7l5.9,1.7l5.8,1.8l11.6,3.6c15.5,4.9,30.9,10.1,46,16.1
			c15.1,6,29.9,12.7,44.5,19.8c14.6,7.2,28.9,14.9,43,23c7,4.1,14,8.2,20.9,12.5c6.9,4.3,13.7,8.7,20.5,13.3
			c6.7,4.6,13.3,9.3,19.9,14.1c6.6,4.8,13.1,9.6,19.6,14.5c12.9,9.8,25.6,20.1,37.8,30.7c6.1,5.3,12.2,10.7,18.1,16.3
			c3,2.8,5.9,5.6,8.7,8.6c1.4,1.5,2.8,3,4.1,4.5c0.7,0.8,1.3,1.6,2,2.4c0.6,0.8,1.2,1.6,1.9,2.6l-0.1-0.1c0.7,0.9,1.2,2,1.4,3.2
			c0.2,1.2,0.1,2.3,0,3.3c0,0.3-0.3,0.6-0.7,0.5c-0.3,0-0.5-0.3-0.5-0.5c-0.1-1-0.2-2.1-0.4-3c-0.2-0.9-0.6-1.7-1.2-2.5l0,0l0-0.1
			c-0.4-0.7-1.1-1.6-1.7-2.3c-0.6-0.8-1.3-1.5-1.9-2.3c-1.3-1.5-2.7-3-4.1-4.4c-2.8-2.9-5.7-5.7-8.7-8.5c-5.9-5.5-12-10.9-18.1-16.2
			c-12.2-10.6-24.9-20.8-37.8-30.6c-6.5-4.9-13-9.7-19.6-14.5c-6.6-4.8-13.2-9.5-19.9-14c-6.7-4.5-13.5-8.9-20.4-13.2
			c-6.9-4.3-13.8-8.4-20.9-12.4c-14.1-8.1-28.3-15.7-42.9-22.9c-14.6-7.1-29.4-13.7-44.4-19.7c-15-6-30.4-11.1-45.9-16l-11.6-3.6
			L643,29l-5.8-1.7c-1.9-0.5-3.9-1.2-5.8-1.7l-5.9-1.5c-3.9-1.1-7.9-1.9-11.8-2.8c-15.8-3.6-31.7-6.4-47.8-8.8
			c-16-2.3-32.1-4.2-48.3-5.5c-16.1-1.3-32.3-2.2-48.5-2.1c-16.2,0.2-32.4,1.2-48.5,2.6c-16.1,1.4-32.3,3.1-48.3,5.2
			c-16.1,2.1-32.1,4.5-48,7.6c-4,0.8-8,1.5-11.9,2.4l-5.9,1.3l-5.9,1.4c-7.8,2-15.7,4.1-23.4,6.4c-15.6,4.5-31,9.5-46.2,15
			c-30.4,11.1-60,24.5-87.6,41.3c-13.8,8.3-27.1,17.6-39.5,27.9c-12.4,10.3-24,21.5-34.5,33.8c-10.5,12.2-19.8,25.5-27.8,39.4
			c-8,14-14.9,28.7-20.2,43.8c-2.6,7.5-4.7,15.4-6.6,23.2c-1.8,7.8-3.4,15.8-4.6,23.7c-1.2,8-2.1,16-2.7,24C7,312,6.8,320,7,328.1
			c0.2,8.1,0.6,16.1,1.5,24.1c0.8,8,1.9,16,3.2,24c0.6,4,1.2,8.1,1.7,12.1c0.5,3.9,1.2,7.9,2,11.8c1.6,7.8,3.8,15.6,6.2,23.3
			c2.5,7.7,5.2,15.2,8.4,22.6c3.1,7.4,6.6,14.7,10.5,21.7c1.9,3.5,4,6.9,6.2,10.2c2.2,3.3,4.6,6.6,7,9.8c4.8,6.5,9.6,13,14.9,19
			c5.3,6,11,11.6,17.2,16.6c6.2,5.1,12.8,9.7,19.6,13.9c3.5,2.1,6.9,4.2,10.4,6.1c1.8,1,3.5,2,5.3,2.9l5.4,2.8
			c7.1,3.7,14.4,7,21.9,9.8c15,5.7,30.6,9.9,46.4,12.8c7.9,1.5,15.9,2.6,23.9,3.4c8,0.8,16.1,1.4,24,1.4l0.1,0
			c1.4,0,2.5,1.1,2.5,2.5C245.1,580.5,244,581.6,242.6,581.6L242.6,581.6z"/>
	</g>
</g>
<g>
	<g enable-background="new    ">
		<g enable-background="new    ">
			<defs>
				<path id="SVGID_1_" enable-background="new    " d="M417.1,573.6l-1.7,1.4c-0.3,0.2-0.6,0.4-1,0.5l1.7-1.4
					C416.5,574,416.8,573.8,417.1,573.6z"/>
			</defs>
			<clipPath id="SVGID_2_">
				<use xlink:href="#SVGID_1_"  overflow="visible"/>
			</clipPath>
			<g clip-path="url(#SVGID_2_)" enable-background="new    ">
				<path fill="#7A7A7A" d="M417.1,573.6l-1.7,1.4c-0.3,0.2-0.6,0.4-1,0.5l1.7-1.4C416.5,574,416.8,573.8,417.1,573.6"/>
			</g>
		</g>
		<g>
			<polygon fill="#808080" points="416.1,574.1 414.3,575.5 407.9,576.8 409.6,575.4 			"/>
		</g>
		<g enable-background="new    ">
			<defs>
				<path id="SVGID_3_" enable-background="new    " d="M406.4,577.5l1.7-1.4c0.4-0.3,0.9-0.6,1.5-0.7l-1.7,1.4
					C407.3,576.9,406.8,577.1,406.4,577.5z"/>
			</defs>
			<clipPath id="SVGID_4_">
				<use xlink:href="#SVGID_3_"  overflow="visible"/>
			</clipPath>
			<g clip-path="url(#SVGID_4_)" enable-background="new    ">
				<path fill="#7A7A7A" d="M409.6,575.4l-1.7,1.4c-0.5,0.1-1,0.4-1.5,0.7l1.7-1.4C408.6,575.7,409.1,575.5,409.6,575.4"/>
			</g>
		</g>
		<g enable-background="new    ">
			<defs>
				<path id="SVGID_5_" enable-background="new    " d="M401.3,590.3l-1.7,1.4c-0.5,0.4-1.1,0.7-1.8,0.9l1.7-1.4
					C400.2,591,400.8,590.7,401.3,590.3z"/>
			</defs>
			<clipPath id="SVGID_6_">
				<use xlink:href="#SVGID_5_"  overflow="visible"/>
			</clipPath>
			<g clip-path="url(#SVGID_6_)" enable-background="new    ">
				<path fill="#7A7A7A" d="M401.3,590.3l-1.7,1.4c-0.5,0.4-1.1,0.7-1.8,0.9l1.7-1.4C400.2,591,400.8,590.7,401.3,590.3"/>
			</g>
		</g>
		<g enable-background="new    ">
			<defs>
				<path id="SVGID_7_" enable-background="new    " d="M326.3,523.3l1.7-1.4c-0.7,0.5-1.3,1.2-1.8,1.9l-1.7,1.4
					C325,524.5,325.6,523.8,326.3,523.3z"/>
			</defs>
			<clipPath id="SVGID_8_">
				<use xlink:href="#SVGID_7_"  overflow="visible"/>
			</clipPath>
			<g clip-path="url(#SVGID_8_)" enable-background="new    ">
				<path fill="#7A7A7A" d="M326.1,523.8l-1.7,1.4c0.5-0.7,1.2-1.3,1.8-1.9l1.7-1.4C327.3,522.4,326.7,523.1,326.1,523.8"/>
			</g>
		</g>
		<g>
			<polygon fill="#808080" points="399.5,591.2 397.8,592.6 351.5,602.4 353.2,601 			"/>
		</g>
		<g>
			<polygon fill="#808080" points="306.9,548.8 305.1,550.2 324.4,525.2 326.1,523.8 			"/>
		</g>
		<g enable-background="new    ">
			<defs>
				<path id="SVGID_9_" enable-background="new    " d="M305.8,549.9l-1.7,1.4c0.4-0.3,0.8-0.7,1.1-1.1l1.7-1.4
					C306.5,549.2,306.2,549.6,305.8,549.9z"/>
			</defs>
			<clipPath id="SVGID_10_">
				<use xlink:href="#SVGID_9_"  overflow="visible"/>
			</clipPath>
			<g clip-path="url(#SVGID_10_)" enable-background="new    ">
				<path fill="#7A7A7A" d="M305.8,549.9l-1.7,1.4c0.4-0.3,0.8-0.7,1.1-1.1l1.7-1.4C306.5,549.2,306.2,549.6,305.8,549.9"/>
			</g>
		</g>
		<g enable-background="new    ">
			<defs>
				<path id="SVGID_11_" enable-background="new    " d="M353.2,601l-1.7,1.4c-0.9,0.2-1.9,0.3-2.8,0.3c-2.5,0-5-0.7-7.3-2l1.7-1.4
					c2.2,1.3,4.7,2,7.3,2C351.3,601.3,352.3,601.2,353.2,601z"/>
			</defs>
			<clipPath id="SVGID_12_">
				<use xlink:href="#SVGID_11_"  overflow="visible"/>
			</clipPath>
			<g clip-path="url(#SVGID_12_)" enable-background="new    ">
				<path fill="#7A7A7A" d="M353.2,601l-1.7,1.4c-0.9,0.2-1.9,0.3-2.8,0.3c-2.5,0-5-0.7-7.3-2l1.7-1.4c2.2,1.3,4.7,2,7.3,2
					C351.3,601.3,352.3,601.2,353.2,601"/>
			</g>
		</g>
		<g>
			<polygon fill="#808080" points="343.1,599.2 341.4,600.6 313.1,583.5 314.8,582.1 			"/>
		</g>
		<g enable-background="new    ">
			<defs>
				<path id="SVGID_13_" enable-background="new    " d="M314.8,582.1l-1.7,1.4c-1.2-0.7-2.5-1.1-3.8-1.1c-0.5,0-1,0-1.5,0.2
					l1.7-1.4c0.5-0.1,1-0.2,1.5-0.2C312.3,581.1,313.6,581.4,314.8,582.1z"/>
			</defs>
			<clipPath id="SVGID_14_">
				<use xlink:href="#SVGID_13_"  overflow="visible"/>
			</clipPath>
			<g clip-path="url(#SVGID_14_)" enable-background="new    ">
				<path fill="#7A7A7A" d="M314.8,582.1l-1.7,1.4c-1.2-0.7-2.5-1.1-3.8-1.1c-0.5,0-1,0-1.5,0.2l1.7-1.4c0.5-0.1,1-0.2,1.5-0.2
					C312.3,581.1,313.6,581.4,314.8,582.1"/>
			</g>
		</g>
		<g enable-background="new    ">
			<defs>
				<path id="SVGID_15_" enable-background="new    " d="M283.8,556.8l1.7-1.4c-0.3,0.2-0.5,0.5-0.7,0.8c-0.2,0.3-3.7,5.3-3.9,6.4
					c-0.2,1,0.1,2.7,0.1,2.8l-1.7,1.4c0-0.1-0.3-1.8-0.1-2.8c0.2-1,3.7-6.1,3.9-6.4C283.2,557.3,283.5,557,283.8,556.8z"/>
			</defs>
			<clipPath id="SVGID_16_">
				<use xlink:href="#SVGID_15_"  overflow="visible"/>
			</clipPath>
			<g clip-path="url(#SVGID_16_)" enable-background="new    ">
				<path fill="#7A7A7A" d="M281,565.4l-1.7,1.4c0-0.1-0.3-1.8-0.1-2.8c0.2-1,3.7-6.1,3.9-6.4c0.2-0.3,0.5-0.6,0.7-0.8l1.7-1.4
					c-0.3,0.2-0.5,0.5-0.7,0.8c-0.2,0.3-3.7,5.3-3.9,6.4C280.7,563.6,281,565.3,281,565.4"/>
			</g>
		</g>
		<g>
			<polygon fill="#808080" points="309.5,581.2 307.8,582.6 294.3,585.4 296,584 			"/>
		</g>
		<g enable-background="new    ">
			<defs>
				<path id="SVGID_17_" enable-background="new    " d="M296,584l-1.7,1.4c-0.4,0.1-0.8,0.1-1.2,0.1c-1.1,0-2.1-0.3-3-0.8l1.7-1.4
					c0.9,0.5,2,0.8,3,0.8C295.2,584.1,295.6,584.1,296,584z"/>
			</defs>
			<clipPath id="SVGID_18_">
				<use xlink:href="#SVGID_17_"  overflow="visible"/>
			</clipPath>
			<g clip-path="url(#SVGID_18_)" enable-background="new    ">
				<path fill="#7A7A7A" d="M296,584l-1.7,1.4c-0.4,0.1-0.8,0.1-1.2,0.1c-1.1,0-2.1-0.3-3-0.8l1.7-1.4c0.9,0.5,2,0.8,3,0.8
					C295.2,584.1,295.6,584.1,296,584"/>
			</g>
		</g>
		<g enable-background="new    ">
			<defs>
				<path id="SVGID_19_" enable-background="new    " d="M291.8,583.3l-1.7,1.4c-0.3-0.2-6.1-3.1-6.6-4c-0.6-0.8-0.7-2.4-0.7-2.5
					l1.7-1.4c0,0.1,0.1,1.6,0.7,2.5C285.7,580.2,291.5,583.2,291.8,583.3z"/>
			</defs>
			<clipPath id="SVGID_20_">
				<use xlink:href="#SVGID_19_"  overflow="visible"/>
			</clipPath>
			<g clip-path="url(#SVGID_20_)" enable-background="new    ">
				<path fill="#7A7A7A" d="M291.8,583.3l-1.7,1.4c-0.3-0.2-6.1-3.1-6.6-4c-0.6-0.8-0.7-2.4-0.7-2.5l1.7-1.4c0,0.1,0.1,1.6,0.7,2.5
					C285.7,580.2,291.5,583.2,291.8,583.3"/>
			</g>
		</g>
		<g enable-background="new    ">
			<defs>
				<path id="SVGID_21_" enable-background="new    " d="M284.4,576.9l-1.7,1.4c-14.5,1.9-26.3,3.3-43.8,3.5l1.7-1.4
					C258.1,580.2,270,578.8,284.4,576.9z"/>
			</defs>
			<clipPath id="SVGID_22_">
				<use xlink:href="#SVGID_21_"  overflow="visible"/>
			</clipPath>
			<g clip-path="url(#SVGID_22_)" enable-background="new    ">
				<path fill="#7A7A7A" d="M284.4,576.9l-1.7,1.4c-14,1.9-22.9,3.2-39.3,3.5c-0.5,0-1-0.1-1.8-0.6c-0.4-0.2-1-0.8-1-0.8
					C258.1,580.2,270,578.8,284.4,576.9"/>
			</g>
		</g>
		<g enable-background="new    ">
			<defs>
				<path id="SVGID_23_" enable-background="new    " d="M240.7,580.4l-1.7,1.4c-0.1,0-1.9-0.1-2.4-5.1c-0.5-5,1.4-7.1,1.5-7.2
					l1.7-1.4c-0.1,0.1-1.9,2.3-1.5,7.2C238.8,580.3,240.6,580.4,240.7,580.4z"/>
			</defs>
			<clipPath id="SVGID_24_">
				<use xlink:href="#SVGID_23_"  overflow="visible"/>
			</clipPath>
		</g>
		<g>
			<path d="M381,509.4c1.4,0,2.8,0.5,3.9,1.4l8.7,7c0.4,0.4,1,0.6,1.5,0.6c0.2,0,0.3,0,0.5-0.1l7.1-1.6c0.2,0,0.4-0.1,0.6-0.1
				c1.2,0,2.3,0.9,2.6,2.1l12.1,52.3c0.3,1.4-0.5,2.7-1.9,3l-6.4,1.3c-1.1,0.2-2,1-2.5,2l-4.5,11c-0.5,1.4-1.7,2.5-3.2,2.8
				l-46.3,9.8c-0.9,0.2-1.9,0.3-2.8,0.3c-2.5,0-5-0.7-7.3-2l-28.3-17.1c-1.2-0.7-2.5-1.1-3.8-1.1c-0.5,0-1,0-1.5,0.2L296,584
				c-0.4,0.1-0.8,0.1-1.2,0.1c-1.1,0-2.1-0.3-3-0.8c-0.3-0.2-6.1-3.1-6.6-4c-0.6-0.8-0.7-2.4-0.7-2.5c-14.5,1.9-26.3,3.3-43.8,3.5
				c-0.1,0-1.9-0.1-2.4-5.1c-0.5-5,1.4-7.1,1.5-7.2c15.2-0.4,27.6-0.9,41.2-2.7c0-0.1-0.3-1.8-0.1-2.8c0.2-1,3.7-6.1,3.9-6.4
				c0.5-0.8,1.4-1.4,2.3-1.6l15.8-3.4c1.6-0.3,3-1.2,4-2.5l19.3-25c1.6-2.1,4-3.6,6.6-4.2l46.9-10.1
				C380.1,509.4,380.5,509.4,381,509.4z"/>
		</g>
	</g>
</g>
<path fill="#FFFFFF" d="M349.8,576.5c-1.3,0-2.4-0.9-2.7-2.2l-6.9-30.3c-0.3-1.5,0.6-3,2.1-3.3c1.5-0.3,3,0.6,3.3,2.1l6.9,30.3
	c0.3,1.5-0.6,3-2.1,3.3C350.2,576.5,350,576.5,349.8,576.5z"/>
<g>
	<g>
		<path d="M520.7,419.2c-1.8,49.8-2.6,81.7-2.5,95.7c0,8,0.3,14.3,1.1,19c0.5,3.1,1.2,5.4,2.2,6.8c2.1,3.4,4.8,4.8,8.1,4.3
			c7.3-1.2,12.2-15.2,14.7-42c-0.1-0.8,0-1.3,0.5-1.4c0.5-0.1,0.9,0.1,1.1,0.6c0.2,0.1,0.2,0.8,0.1,2l-1,7.6
			c-2.8,22.1-7.8,33.7-15.1,35c-4,0.7-8-0.2-11.9-2.6c-4-2.4-7.2-5.5-9.7-9.4c-2.5-3.8-3.9-8.7-4.2-14.6c-2.3,21-6.9,32.1-13.9,33.2
			c-4.8,0.8-9.9-0.6-15.2-4.1c-4.6-3-8.4-6.8-11.3-11.4c-2.5-4-4.1-8-4.8-12c-1.4-8.6,1.3-17.2,8.2-25.9c8-10.2,15.8-15.9,23.5-17.2
			c4-0.7,7.2,0.3,9.7,3c2.5,2.7,4,6,4.5,10l0.4-74.4c3-0.2,5.9-0.5,8.5-0.9C514.2,420.2,516.6,419.8,520.7,419.2z M491.2,484.3
			c-7.3,1.2-12.6,9.6-16,25.1c-2,9.4-2.5,17.4-1.3,24.2c0.8,4.8,2.4,8.9,4.8,12.2c3,4.5,6.6,6.3,10.9,5.6
			c6.5-1.1,10.9-13.4,13.3-36.9c0.9-8,0.9-14.3,0.2-18.9C501.6,487,497.6,483.3,491.2,484.3z"/>
		<path d="M679.2,470.5c0,0.2,0,0.9,0,2.1l-0.3,7.6c-1.4,22.2-5.8,34.2-13,35.8c-4.1,0.9-8.2,0.3-12.4-1.8
			c-4.2-2.1-7.6-5.1-10.2-8.8c-2.5-3.2-3.9-6.3-4.2-9.4c-0.6-3.1-0.7-9.2-0.3-18.3c0.2-10.2-0.6-16.7-2.4-19.4c-2.2-2.9-5-4-8.3-3.3
			c-10.5,2.4-14.3,26.1-11.5,71.2c-1.8,0.4-4.1,0.9-6.9,1.6c-3.3,0.8-6,1.4-8.1,1.9l-0.8-28.2c-0.3-12.7-1.1-21.8-2.4-27.4
			c-0.6-2.8-1.4-4.8-2.2-6c-2.5-3.2-5.2-4.5-8.1-3.8c-5.7,1.3-9,12.2-9.8,32.8c-0.5,13-0.1,25.6,1.2,37.7c-2,0.5-4.4,1-7.4,1.7
			c-3.1,0.7-5.7,1.3-7.9,1.8l-0.6-28.3c-0.3-13.2-1.1-22.8-2.5-28.9c-1.5-6.7-4-9.7-7.5-8.9c-3.9,0.9-6.4,10.5-7.3,28.8
			c-0.1,1.2-0.3,1.9-0.8,2c-0.5,0-0.8-0.2-0.9-0.6c-1-1.3-0.7-6.6,1-15.7c1.8-10.1,4.4-15.5,7.9-16.3c2.9-0.7,6.1,0,9.5,2
			c3.4,2,6,4.3,7.9,6.8s3.3,6.1,4.4,10.5c0.6,2.6,1,5.5,1.2,8.8c0.5-22.4,4.3-34.3,11.4-36c3.8-0.9,7.7-0.1,11.9,2.2
			c3.5,1.9,6.6,4.6,9.1,8c1.8,2.5,3.1,5.6,3.9,9.2c0.6,2.5,0.9,5.1,1.1,8c1.4-22.5,5.8-34.7,13.3-36.4c3.9-0.9,8-0.2,12.2,2.1
			c4.2,2.3,7.6,5.2,10,8.7c2.4,3.5,4,7.1,4.7,10.9c0.6,3.5,0.8,10.9,0.5,22.4c-0.1,6.2,0.8,10.7,2.8,13.3c2.2,2.9,5,4,8.3,3.3
			c6.2-1.4,9.9-12.9,11-34.3l0.3-5.5l0.6-3c-0.2-0.8,0-1.3,0.5-1.4C678.6,469.9,678.9,470,679.2,470.5z"/>
		<path d="M759.2,445.9c1.1,1.4,0.8,9.8-1,25.2c-1.3,12.4-4.7,19.4-10,20.9c-3.9,1.1-7.9,0.7-12.1-1.1c-4.2-1.9-7.7-4.6-10.6-8.1
			c-2.8-3.6-4.8-7.9-5.9-13c-0.1,9.5-0.4,15.7-0.9,18.9c-1.3,8.2-4.4,13-9.3,14.4c-4.8,1.4-10.1,0.6-15.8-2.3
			c-4.9-2.4-9-5.8-12.3-10.1c-3.2-3.8-5.3-7.7-6.4-11.5c-2.9-10.2,0.3-21.1,9.7-32.9c5.8-7.2,11.5-11.7,17.2-13.3
			c6.8-1.9,11.8,1.1,15.2,9l-2-11.7c2.7-0.3,5-0.6,6.7-1.1c2.1-0.6,4.7-1.6,7.8-3l3.8,36.4c1.3,12.7,3.4,20.8,6.1,24.2
			c2.7,3.3,5.5,4.4,8.6,3.6c3.9-1.1,6.7-7.8,8.5-20c0.9-7.8,1.3-15.6,1.2-23.4c-0.2-0.8-0.1-1.3,0.4-1.4
			C758.5,445.3,758.9,445.4,759.2,445.9z M703.2,434.3c-7.3,2.1-11.7,11-13.3,26.8c-1.1,9.6-0.7,17.7,1.2,24.3
			c1.3,4.7,3.4,8.6,6.3,11.8c3.4,3.9,7.3,5.3,11.6,4c5.5-1.6,8.5-12.2,9-31.9c0.3-10.7-0.4-19-2.1-24.8
			C713.4,436,709.2,432.6,703.2,434.3z"/>
		<path d="M852.6,414.2c1.2,1.4,1.2,9.8,0.1,25.2c-0.8,12.5-3.9,19.6-9.1,21.3c-3.8,1.3-7.9,1-12.3-0.7c-4.4-1.7-8-4.1-10.7-7.2
			c-2.8-3.1-4.6-6.1-5.4-9c-0.8-3.1-1.6-9.6-2.2-19.4c-0.5-6.9-1.3-12-2.4-15.1c-0.5-1.4-1-2.5-1.6-3.2c-2.5-2.7-5.4-3.5-8.8-2.4
			c-11.3,3.7-12.9,27.7-4.6,71.9c-4,1.3-6.4,2.1-7.2,2.4c-2.7,0.9-5.2,1.7-7.4,2.5l-3.6-30.9c-1.5-11.5-3.2-20-5-25.4
			c-2.2-6.7-5.1-9.5-8.6-8.3c-3.8,1.3-5.3,11-4.4,29.3c-0.1,0.9-0.2,1.6-0.4,2c-0.5,0.2-0.9,0-1.2-0.4c-0.3-0.3-0.4-0.6-0.3-1l0-3.2
			c-0.2-17.6,1.8-27.1,6-28.5c2.9-1,6.2-0.6,9.9,1s6.7,3.7,9,6.3c1.9,2,3.4,4.8,4.6,8.3c1.2,3.5,1.9,7.7,2.3,12.5
			c-0.2-10.9-0.1-18.2,0.5-21.9c1.2-10.3,4.3-16.3,9.4-18c3.8-1.3,8.1-0.9,12.8,1.1c4.1,1.7,7.6,4.1,10.4,7.4
			c1.7,2.1,3.2,4.9,4.4,8.4c1.2,3.5,2.1,9,2.9,16.5c0.8,7.5,1.8,13.1,3,16.8c0.6,1.9,1.3,3.3,1.9,4.1c2.5,2.7,5.3,3.5,8.5,2.5
			c7-2.3,9.6-16.9,7.8-43.7c-0.3-0.8-0.2-1.3,0.3-1.4C851.9,413.7,852.3,413.8,852.6,414.2z"/>
		<path d="M892.5,306.8c7.6,49.3,12.8,80.8,15.6,94.4c1.5,7.9,3,14,4.7,18.4c1.1,3,2.2,5.1,3.4,6.3c2.7,2.9,5.6,3.8,8.8,2.7
			c6.9-2.6,9.1-17.2,6.6-44.1c-0.3-0.8-0.2-1.3,0.3-1.4c0.5-0.2,0.9-0.1,1.2,0.4c0.2,0.1,0.4,0.8,0.5,2l0.4,7.6
			c1.4,22.2-1.4,34.6-8.3,37.2c-3.8,1.4-7.9,1.3-12.2-0.3c-4.4-1.6-8.1-4.1-11.3-7.4c-3.2-3.3-5.5-7.8-6.9-13.6
			c1.7,21-0.8,32.8-7.4,35.2c-4.6,1.7-9.8,1.3-15.7-1.2c-5.1-2.1-9.5-5.1-13.3-9.1c-3.2-3.5-5.6-7.1-7-10.9c-3-8.2-2-17.2,3.2-27
			c6-11.5,12.6-18.6,19.8-21.3c3.8-1.4,7.2-1,10.1,1.1c2.9,2.1,5,5.1,6.3,9l-13.6-73.1c2.9-0.7,5.7-1.6,8.2-2.5
			C886.3,309.1,888.6,308.2,892.5,306.8z M875.8,376.4c-6.9,2.6-10.6,11.8-11,27.7c-0.2,9.6,0.9,17.6,3.2,24c1.7,4.6,4,8.3,7.1,11.1
			c3.7,3.8,7.6,5,11.7,3.4c6.1-2.3,8.2-15.2,6.1-38.8c-0.6-8-1.8-14.2-3.4-18.6C886.5,377,881.9,374.1,875.8,376.4z"/>
	</g>
	<g>
		<path d="M1126.5,189.7c8.3,57.5,18.3,98.6,29.9,123.4c8.4,18,18.7,28,31,30c6.1,1.2,11.8,0.6,17-1.8c9-4.2,13.5-12,13.5-23.5
			c-0.1-0.9,0.2-1.5,0.6-1.7c0.5-0.2,1-0.1,1.6,0.4c0.7,0.6,0.7,2.5,0.1,5.5c-1.8,10.3-6.5,17.2-14,20.7c-7.8,3.6-16.6,4.1-26.6,1.3
			c-8.9-2.5-16.9-6.9-23.9-13.1c-7-6.3-13.1-14.7-18.2-25.3c-4.1-8.7-7.4-18.7-9.9-30.1l0.7,5.6l1.1,8.4c2.6,16.3,3.3,30.9,2.2,43.9
			c-1.7,19.8-7.7,32.1-18.1,36.9c-5.8,2.7-12.3,3.1-19.5,1.1c-6.2-1.7-11.9-5-17.1-9.8c-6-5.4-10.2-11.6-12.6-18.6
			c-2.8-8.4-5.1-21.6-6.8-39.8c-1.7-18.2-4.1-31.5-7-39.7c-2.6-7.9-7.3-14.6-14.1-20.1c-6.8-5.5-14.4-8.7-22.5-9.5
			c-8.9-0.8-17.9,0.8-26.8,5c-22.7,10.6-35.3,29.1-37.8,55.5c-1.4,14.9,0.8,28.5,6.5,40.6c4.3,9.3,10.3,17.4,17.8,24.5
			c8.3,7.4,17.2,12.1,26.6,14c9.4,1.9,18,1,25.8-2.6c14.8-6.9,21.5-20.2,20.2-40c-0.8-10.9-3.2-20.6-7.1-28.9
			c-3.6-7.6-8.4-14.2-14.5-19.7c-10.9-9.9-21.4-12.5-31.5-7.8c-10.2,4.8-15.3,14.6-15.2,29.4c0.1,7.7,1.6,14.7,4.5,21
			c5.1,11,12,17.5,20.6,19.6c3.7,0.9,6.8,0.7,9.3-0.4l0.9-0.4c0.2-0.3,0.6-0.5,1-0.8c0.6-0.3,1.2-0.2,1.8,0.3c0.7,0.6,0.2,1.3-1.3,2
			c-4.7,2.2-10.1,2.4-16.1,0.6c-5.2-1.6-10-4.3-14.2-8.1c-4.3-3.8-7.5-8-9.7-12.7c-3-6.4-4-13.8-3.1-22.2
			c1.4-14.4,7.9-24.2,19.3-29.6c11.7-5.5,23.6-2.8,35.7,8c6.4,5.7,11.4,12.6,15.1,20.5c3.8,8.2,6.2,17.6,7,28.1
			c1.8,21.2-5.3,35.6-21.1,43c-9.9,4.6-20.8,5.5-32.8,2.5c-10.7-2.8-20.6-8.1-29.4-16c-8.3-7.4-14.5-15.5-18.5-24.2
			c-6.5-14-7.4-29.7-2.6-47.2c3-10.7,8.1-20.6,15.4-29.9c7.3-9.2,15.7-16.1,25.3-20.6c11.4-5.3,23.1-7,35-4.9
			c11.4,2.1,21.8,7.4,31.4,15.9c6.6,5.8,11.5,12.1,14.6,18.8c0.8,1.7,1.4,3.4,1.9,5.2c2.9,8.6,6,26.8,9.4,54.6
			c1.4,12.1,3,20.6,4.6,25.4c3.3,9.8,9.6,15.6,19,17.5c4.3,0.8,8.1,0.4,11.6-1.3c14.8-6.9,19.5-34.1,14.1-81.7
			c-2.4-20.2-7.9-49.6-16.5-88.2c4.3-1.6,6.6-2.5,7.1-2.7C1119.7,194.3,1122.9,192.3,1126.5,189.7z"/>
		<path d="M1255.5,257.7c1.3,1.3,2,9.6,2.2,25.1c0.2,12.5-2.2,19.8-7.3,22c-3.7,1.6-7.8,1.7-12.3,0.3c-4.5-1.4-8.3-3.4-11.3-6.3
			c-3-2.8-5.1-5.6-6.1-8.5c-1.1-3-2.4-9.4-3.8-19.2c-1.1-6.8-2.3-11.8-3.6-14.9c-0.6-1.4-1.2-2.4-1.8-3c-2.7-2.5-5.7-3-8.9-1.7
			c-11,4.7-10.5,28.7,1.4,72c-3.9,1.7-6.2,2.6-6.9,3c-2.6,1.1-5,2.1-7.2,3.1l-6.2-30.5c-2.5-11.4-4.8-19.7-7.1-24.9
			c-2.8-6.5-5.9-9-9.3-7.6c-3.7,1.6-4.3,11.4-1.9,29.6c0,0.9-0.1,1.6-0.2,2c-0.5,0.2-0.9,0.1-1.2-0.3c-0.3-0.2-0.4-0.6-0.4-0.9
			l-0.3-3.2c-1.7-17.6-0.5-27.2,3.5-28.9c2.8-1.2,6.1-1.1,9.9,0.1c3.8,1.3,7,3.1,9.5,5.5c2.1,1.9,3.8,4.5,5.3,7.9
			c1.5,3.4,2.6,7.5,3.3,12.3c-1.2-10.8-1.6-18.1-1.4-21.9c0.3-10.4,2.9-16.6,7.9-18.7c3.7-1.6,8-1.6,12.9,0c4.2,1.3,7.9,3.5,11,6.5
			c1.9,1.9,3.6,4.6,5.1,8c1.5,3.4,2.9,8.8,4.3,16.2c1.4,7.4,2.9,12.9,4.4,16.5c0.8,1.9,1.5,3.2,2.2,4c2.7,2.5,5.6,3.1,8.7,1.8
			c6.8-2.9,8.2-17.6,4.1-44.2c-0.3-0.8-0.3-1.3,0.2-1.5C1254.7,257.2,1255.1,257.3,1255.5,257.7z"/>
		<path d="M1248.9,167.7l21,100.3c1.3,4.9,2.5,8.9,3.7,12.1c1.2,3.1,2.5,5.3,3.7,6.7c2.8,2.9,5.6,3.7,8.6,2.6
			c6.4-2.5,8.3-17.3,5.6-44.2c-0.5-0.7-0.4-1.2,0.2-1.4c0.5,0,0.9,0.1,1.2,0.3c0.3,0.4,0.4,1.1,0.3,2.1l0.6,7.6
			c1.9,22.2-0.6,34.6-7.4,37.4c-3.6,1.4-7.4,1.4-11.5,0.1c-4.1-1.4-7.5-3.6-10.3-6.6c-3.5-3.5-5.9-7.2-7.2-11.3
			c-1.4-4.5-4.1-16.5-8.1-36.1c-5.4-26.1-10.2-47.4-14.4-63.9c3-0.1,5.4-0.5,7.1-1.2C1244.8,171,1247.1,169.5,1248.9,167.7z"/>
		<path d="M1288.9,196.3c0.8,2,0.8,4,0,5.9c-0.7,1.9-2.1,3.2-4.2,4c-3.5,1.3-6.6,0.5-9.5-2.4c-1.9-2.2-2.6-4.7-2.3-7.5
			c0.4-2.8,2-4.8,4.8-5.8c2.2-0.8,4.4-0.6,6.5,0.5C1286.5,192.1,1288.1,193.9,1288.9,196.3z M1326.5,232.3c0.1,0.2,0.1,0.8,0.2,2.1
			l0.4,7.6c1.5,22.2-1.6,34.7-9.1,37.5c-3.8,1.4-7.9,1.5-12.3,0.1c-4.4-1.3-8.1-3.6-11.1-6.7c-3.5-3.7-6.3-10.4-8.3-20l-6.1-32.4
			c2.7-0.5,4.7-1,6.2-1.5c2-0.8,4.8-2,8.2-3.9l7.9,46c2.5,14,7.6,19.5,15.3,16.6c6.9-2.6,9.3-17.3,7-44.3c-0.3-0.8-0.2-1.3,0.3-1.4
			S1326,231.9,1326.5,232.3z"/>
		<path d="M1456.6,190.6c0,0.2,0.1,0.9,0.1,2.1l0.3,7.6c0.4,22.3-2.9,34.5-9.9,36.8c-4,1.3-8.2,1-12.5-0.8c-4.4-1.8-8-4.4-10.9-7.9
			c-2.7-3-4.4-6-5-9c-0.8-3.1-1.4-9.2-1.8-18.2c-0.6-10.2-2-16.6-4-19.1c-2.5-2.7-5.3-3.6-8.5-2.6c-10.2,3.3-12.1,27.2-5.6,71.9
			c-1.8,0.6-4,1.3-6.7,2.1c-3.2,1-5.8,1.9-7.9,2.5L1381,228c-1.4-12.6-2.9-21.6-4.7-27.1c-0.9-2.7-1.7-4.6-2.6-5.8
			c-2.7-3-5.5-4.1-8.4-3.1c-5.6,1.8-7.9,12.9-7,33.5c0.6,13,2.1,25.5,4.3,37.5c-1.9,0.6-4.3,1.4-7.2,2.3c-3,1-5.6,1.8-7.7,2.5
			l-2.9-28.2c-1.4-13.1-3-22.7-4.9-28.6c-2.1-6.6-4.8-9.3-8.2-8.2c-3.8,1.2-5.5,11-4.9,29.3c0,1.2-0.2,1.9-0.7,2.1
			c-0.5,0-0.8-0.2-1-0.5c-1.1-1.2-1.2-6.5-0.3-15.8c1-10.2,3.1-15.8,6.5-16.9c2.9-0.9,6.1-0.5,9.6,1.2c3.5,1.7,6.4,3.7,8.5,6.2
			c2.1,2.4,3.8,5.8,5.2,10.1c0.8,2.6,1.5,5.4,2,8.6c-1.3-22.3,1.5-34.6,8.3-36.8c3.7-1.2,7.7-0.8,12,1.2c3.7,1.6,6.9,4,9.7,7.2
			c2,2.4,3.5,5.3,4.7,8.8c0.8,2.4,1.3,5,1.7,7.9c-0.5-22.6,2.9-35,10.3-37.4c3.8-1.2,8-0.9,12.4,1.1c4.4,1.9,8,4.5,10.7,7.8
			c2.7,3.3,4.6,6.8,5.6,10.5c0.9,3.4,1.7,10.8,2.4,22.3c0.4,6.2,1.7,10.6,3.9,13c2.5,2.7,5.3,3.6,8.5,2.6c6.1-1.9,8.8-13.6,8.1-35.1
			l-0.2-5.5l0.4-3c-0.3-0.8-0.1-1.3,0.3-1.4C1455.9,190.1,1456.3,190.2,1456.6,190.6z"/>
		<path d="M1462.6,142.4c0.6,2.1,0.4,4.1-0.5,5.9c-0.9,1.8-2.4,3-4.5,3.6c-3.6,1-6.6-0.1-9.2-3.2c-1.7-2.3-2.2-4.9-1.6-7.7
			c0.6-2.8,2.4-4.6,5.3-5.4c2.3-0.6,4.4-0.3,6.4,1.1C1460.6,138,1461.9,139.9,1462.6,142.4z M1496.9,181.5c0,0.2,0.1,0.9,0,2.1
			l-0.2,7.6c-0.5,22.3-4.6,34.5-12.4,36.6c-3.9,1.1-8,0.8-12.3-0.9c-4.3-1.7-7.8-4.3-10.5-7.7c-3.2-4-5.4-10.9-6.5-20.7l-3.3-32.8
			c2.7-0.2,4.8-0.5,6.3-0.9c2.1-0.6,4.9-1.6,8.5-3.1l3.9,46.5c1.3,14.1,5.9,20.1,13.8,17.9c7.1-2,10.7-16.5,10.8-43.5
			c-0.2-0.8-0.1-1.3,0.4-1.4C1496,181,1496.5,181.1,1496.9,181.5z"/>
		<path d="M1521.9,146.6l-0.1,1.8l-15.7,4l4.4,47.2c1,12.9,5.4,18.4,13.3,16.4c7.3-1.9,11-16.2,11-43.1c0-0.9,0.2-1.3,0.7-1.5
			c0.5-0.1,0.9,0,1.2,0.5c0.2,0.1,0.3,0.8,0.3,2l-0.4,7.6c-0.9,22.2-5.2,34.3-12.7,36.2c-4.1,1-8.2,0.6-12.5-1.2
			c-4.3-1.9-7.7-4.5-10.4-8c-3.2-4.2-5.1-10.1-5.7-17.5l-2.8-35.2l-12.1,3.1l0.1-1.8l12.2-3.1l-2.2-24.1c2.9,0,5.4-0.3,7.5-0.9
			c2.1-0.5,4.1-1.4,6.1-2.6l2.2,24.1L1521.9,146.6z"/>
		<path d="M1591.4,160.1c0.2,0.3,0.1,1.4-0.3,3.4l-0.8,6.9c-3.2,22.3-10.7,34.7-22.5,37.4c-6.1,1.4-12.3,0.6-18.6-2.2
			c-6.3-2.9-11.4-7-15.2-12.3c-2.6-3.7-4.3-7.5-5.1-11.2c-2.2-9.7,1.3-19.7,10.5-30c6.7-7.6,13.4-12.1,20.2-13.6
			c2.8-0.6,5.8-0.4,8.9,0.7c3.2,1.1,5.6,2.7,7.3,4.9c1,1.5,1.7,3.1,2.1,4.7c1.9,8.4-9.4,18.3-34,29.9c-0.2,3.8,0.1,7.4,0.9,10.7
			c1.3,5.7,3.8,10.2,7.4,13.3c4.1,3.6,9,4.7,14.7,3.4c12.6-2.9,20-17.6,22.3-44.1c0.2-1.4,0.6-2.2,1.3-2.4
			C1590.8,159.6,1591.1,159.8,1591.4,160.1z M1560.2,139.8c-5.2,1.2-9.4,6.4-12.4,15.7c-2.1,6.7-3.4,13.8-3.9,21.3
			c6.3-3.5,11.9-7.7,16.8-12.6c6.5-6.8,9.2-12.9,8-18.3C1567.4,140.8,1564.6,138.8,1560.2,139.8z"/>
		<path d="M1644.5,62.7c-0.3,49.9-0.1,81.8,0.4,95.7c0.2,8,0.8,14.3,1.7,18.9c0.6,3.1,1.4,5.4,2.4,6.7c2.2,3.3,4.9,4.7,8.2,4
			c7.3-1.4,11.7-15.6,13.4-42.5c-0.2-0.8,0-1.3,0.5-1.4c0.5-0.1,0.9,0.1,1.1,0.5c0.2,0.1,0.2,0.8,0.1,2l-0.8,7.6
			c-2.1,22.2-6.8,34-14.1,35.4c-4,0.8-8,0-12-2.3c-4-2.3-7.4-5.3-10-9.1c-2.6-3.8-4.2-8.6-4.7-14.5c-1.7,21-6,32.2-12.9,33.6
			c-4.8,0.9-9.9-0.3-15.4-3.6c-4.7-2.8-8.6-6.5-11.7-11c-2.7-3.9-4.4-7.9-5.2-11.8c-1.7-8.6,0.8-17.3,7.4-26.1
			c7.7-10.4,15.4-16.4,22.9-17.9c4-0.8,7.2,0.1,9.8,2.7s4.2,5.9,4.8,9.8l-1.8-74.4c3-0.3,5.8-0.7,8.5-1.2
			C1638,64,1640.4,63.5,1644.5,62.7z M1616.9,128.7c-7.3,1.4-12.3,10-15.2,25.6c-1.7,9.4-1.9,17.5-0.6,24.3
			c0.9,4.8,2.7,8.8,5.2,12.1c3.1,4.4,6.8,6.1,11.1,5.3c6.4-1.3,10.5-13.7,12.1-37.3c0.6-8,0.5-14.3-0.4-18.9
			C1627.4,131.1,1623.4,127.5,1616.9,128.7z"/>
	</g>
</g>
<g>
	<g enable-background="new    ">
		<g enable-background="new    ">
			<defs>
				<path id="SVGID_25_" enable-background="new    " d="M1716.2,144.5l-1.7-1.4c0.4,0.4,1,0.6,1.6,0.6c0.2,0,0.4,0,0.6-0.1l1.7,1.4
					c-0.2,0-0.4,0.1-0.6,0.1C1717.2,145.1,1716.7,144.9,1716.2,144.5z"/>
			</defs>
			<clipPath id="SVGID_26_">
				<use xlink:href="#SVGID_25_"  overflow="visible"/>
			</clipPath>
			<g clip-path="url(#SVGID_26_)" enable-background="new    ">
				<path fill="#7A7A7A" d="M1716.7,143.6l1.7,1.4c-0.2,0-0.4,0.1-0.6,0.1c-0.6,0-1.2-0.2-1.6-0.6l-1.7-1.4c0.4,0.4,1,0.6,1.6,0.6
					C1716.3,143.7,1716.5,143.7,1716.7,143.6"/>
			</g>
		</g>
		<g>
			<polygon fill="#808080" points="1723.8,142.1 1725.5,143.5 1718.4,145 1716.7,143.6 			"/>
		</g>
		<g enable-background="new    ">
			<defs>
				<path id="SVGID_27_" enable-background="new    " d="M1725.8,142.5l1.7,1.4c-0.4-0.3-0.9-0.5-1.5-0.5c-0.2,0-0.3,0-0.5,0.1
					l-1.7-1.4c0.2,0,0.3-0.1,0.5-0.1C1724.9,142,1725.4,142.2,1725.8,142.5z"/>
			</defs>
			<clipPath id="SVGID_28_">
				<use xlink:href="#SVGID_27_"  overflow="visible"/>
			</clipPath>
			<g clip-path="url(#SVGID_28_)" enable-background="new    ">
				<path fill="#7A7A7A" d="M1725.8,142.5l1.7,1.4c-0.4-0.3-0.9-0.5-1.5-0.5c-0.2,0-0.3,0-0.5,0.1l-1.7-1.4c0.2,0,0.3-0.1,0.5-0.1
					C1724.9,142,1725.4,142.2,1725.8,142.5"/>
			</g>
		</g>
		<g enable-background="new    ">
			<defs>
				<path id="SVGID_29_" enable-background="new    " d="M1736,151.1l-1.7-1.4c1.1,0.9,2.4,1.3,3.7,1.3c0.4,0,0.8,0,1.3-0.1l1.7,1.4
					c-0.4,0.1-0.8,0.1-1.3,0.1C1738.3,152.4,1737,151.9,1736,151.1z"/>
			</defs>
			<clipPath id="SVGID_30_">
				<use xlink:href="#SVGID_29_"  overflow="visible"/>
			</clipPath>
			<g clip-path="url(#SVGID_30_)" enable-background="new    ">
				<path fill="#7A7A7A" d="M1739.2,150.9l1.7,1.4c-0.4,0.1-0.8,0.1-1.3,0.1c-1.4,0-2.7-0.5-3.7-1.3l-1.7-1.4
					c1.1,0.9,2.4,1.3,3.7,1.3C1738.4,151,1738.8,151,1739.2,150.9"/>
			</g>
		</g>
		<g>
			<polygon fill="#808080" points="1786.7,140.7 1788.4,142.1 1741,152.3 1739.2,150.9 			"/>
		</g>
		<g enable-background="new    ">
			<defs>
				<path id="SVGID_31_" enable-background="new    " d="M1793.5,136.6l1.7,1.4c-1.7,2.1-4.1,3.6-6.8,4.2l-1.7-1.4
					C1789.3,140.2,1791.7,138.7,1793.5,136.6z"/>
			</defs>
			<clipPath id="SVGID_32_">
				<use xlink:href="#SVGID_31_"  overflow="visible"/>
			</clipPath>
			<g clip-path="url(#SVGID_32_)" enable-background="new    ">
				<path fill="#7A7A7A" d="M1793.5,136.6l1.7,1.4c-1.7,2.1-4.1,3.6-6.8,4.2l-1.7-1.4C1789.3,140.2,1791.7,138.7,1793.5,136.6"/>
			</g>
		</g>
		<g>
			<polygon fill="#7F7F7F" points="1814,111.6 1815.7,113 1795.2,138 1793.5,136.6 			"/>
		</g>
		<g enable-background="new    ">
			<defs>
				<path id="SVGID_33_" enable-background="new    " d="M1836.8,80.6l1.7,1.4c0.2,0.2,0.3,0.3,0.4,0.4c0.5,0.8,0.6,2.4,0.6,2.5
					l-1.7-1.4c0-0.1-0.1-1.6-0.6-2.5C1837.1,80.9,1837,80.8,1836.8,80.6z"/>
			</defs>
			<clipPath id="SVGID_34_">
				<use xlink:href="#SVGID_33_"  overflow="visible"/>
			</clipPath>
			<g clip-path="url(#SVGID_34_)" enable-background="new    ">
				<path fill="#7A7A7A" d="M1836.8,80.6l1.7,1.4c0.2,0.2,0.3,0.3,0.4,0.4c0.5,0.8,0.6,2.4,0.6,2.5l-1.7-1.4c0-0.1-0.1-1.6-0.6-2.5
					C1837.1,80.9,1837,80.8,1836.8,80.6"/>
			</g>
		</g>
		<g enable-background="new    ">
			<defs>
				<path id="SVGID_35_" enable-background="new    " d="M1818.1,109.1l1.7,1.4c-1.6,0.3-3,1.2-4.1,2.5l-1.7-1.4
					C1815,110.3,1816.5,109.4,1818.1,109.1z"/>
			</defs>
			<clipPath id="SVGID_36_">
				<use xlink:href="#SVGID_35_"  overflow="visible"/>
			</clipPath>
			<g clip-path="url(#SVGID_36_)" enable-background="new    ">
				<path fill="#7A7A7A" d="M1818.1,109.1l1.7,1.4c-1.6,0.3-3,1.2-4.1,2.5l-1.7-1.4C1815,110.3,1816.5,109.4,1818.1,109.1"/>
			</g>
		</g>
		<g>
			<polygon fill="#808080" points="1834.1,105.7 1835.8,107.1 1819.8,110.5 1818.1,109.1 			"/>
		</g>
		<g enable-background="new    ">
			<defs>
				<path id="SVGID_37_" enable-background="new    " d="M1840.7,95l1.7,1.4c0,0.1,0.2,1.8,0,2.8c-0.2,1-4,6.1-4.2,6.4
					c-0.6,0.8-1.4,1.4-2.4,1.6l-1.7-1.4c1-0.2,1.8-0.8,2.4-1.6c0.2-0.3,3.9-5.3,4.2-6.4C1840.9,96.8,1840.7,95.1,1840.7,95z"/>
			</defs>
			<clipPath id="SVGID_38_">
				<use xlink:href="#SVGID_37_"  overflow="visible"/>
			</clipPath>
			<g clip-path="url(#SVGID_38_)" enable-background="new    ">
				<path fill="#7A7A7A" d="M1840.7,95l1.7,1.4c0,0.1,0.2,1.8,0,2.8c-0.2,1-4,6.1-4.2,6.4c-0.6,0.8-1.4,1.4-2.4,1.6l-1.7-1.4
					c1-0.2,1.8-0.8,2.4-1.6c0.2-0.3,3.9-5.3,4.2-6.4C1840.9,96.8,1840.7,95.1,1840.7,95"/>
			</g>
		</g>
		<g enable-background="new    ">
			<defs>
				<path id="SVGID_39_" enable-background="new    " d="M1882,92.3l1.7,1.4c-15.2,0.4-27.6,0.9-41.4,2.7l-1.7-1.4
					C1854.5,93.2,1866.9,92.7,1882,92.3z"/>
			</defs>
			<clipPath id="SVGID_40_">
				<use xlink:href="#SVGID_39_"  overflow="visible"/>
			</clipPath>
			<g clip-path="url(#SVGID_40_)" enable-background="new    ">
				<path fill="#7A7A7A" d="M1882,92.3c0,0-0.1,0.5-0.6,0.9c-0.4,0.4-1,0.5-1,0.5c-15.2,0.4-24.3,0.9-38.1,2.7l-1.7-1.4
					C1854.5,93.2,1866.9,92.7,1882,92.3"/>
			</g>
		</g>
		<g enable-background="new    ">
			<defs>
				<path id="SVGID_41_" enable-background="new    " d="M1882.4,80.3l1.7,1.4c0.6,0.5,1.3,1.7,1.5,4.8c0.2,5-1.7,7.1-1.8,7.2
					l-1.7-1.4c0.1-0.1,2-2.3,1.8-7.2C1883.7,81.9,1883,80.7,1882.4,80.3z"/>
			</defs>
			<clipPath id="SVGID_42_">
				<use xlink:href="#SVGID_41_"  overflow="visible"/>
			</clipPath>
		</g>
		<g>
			<path d="M1773.1,59.1c2.5,0,5,0.7,7.2,2l27.4,17.1c1.1,0.7,2.5,1.1,3.8,1.1c0.5,0,1-0.1,1.5-0.2l13.6-2.8
				c0.4-0.1,0.8-0.1,1.2-0.1c1.1,0,2.1,0.3,3,0.8c0.3,0.2,5.9,3.1,6.4,4c0.5,0.8,0.6,2.4,0.6,2.5c14.6-1.9,26.5-3.3,43.9-3.5
				c0.1,0,1.9,0.1,2.2,5.1c0.2,5-1.7,7.1-1.8,7.2c-15.2,0.4-27.6,0.9-41.4,2.7c0,0.1,0.2,1.8,0,2.8c-0.2,1-4,6.1-4.2,6.4
				c-0.6,0.8-1.4,1.4-2.4,1.6l-16,3.4c-1.6,0.3-3,1.2-4.1,2.5l-20.5,25c-1.7,2.1-4.1,3.6-6.8,4.2l-47.4,10.1
				c-0.4,0.1-0.8,0.1-1.3,0.1c-1.4,0-2.7-0.5-3.8-1.4l-8.3-7c-0.4-0.4-1-0.5-1.5-0.5c-0.2,0-0.3,0-0.5,0.1l-7.2,1.6
				c-0.2,0-0.4,0.1-0.6,0.1c-1.2,0-2.3-0.8-2.5-2.1l-9.6-52.3c-0.3-1.4,0.7-2.7,2-3l6.5-1.3c1.1-0.2,2.1-1,2.6-2.1l5-11
				c0.6-1.4,1.8-2.5,3.3-2.8l46.8-9.8C1771.2,59.2,1772.1,59.1,1773.1,59.1z"/>
		</g>
	</g>
</g>
<path fill="#FFFFFF" d="M1771.4,84.2c1.3,0,2.4,0.9,2.7,2.2l6.9,30.3c0.3,1.5-0.6,3-2.1,3.3c-1.5,0.3-3-0.6-3.3-2.1l-6.9-30.3
	c-0.3-1.5,0.6-3,2.1-3.3C1771,84.2,1771.2,84.2,1771.4,84.2z"/>
<path fill="#FFFFFF" d="M1771.4,84.2c1.3,0,2.4,0.9,2.7,2.2l6.9,30.3c0.3,1.5-0.6,3-2.1,3.3c-1.5,0.3-3-0.6-3.3-2.1l-6.9-30.3
	c-0.3-1.5,0.6-3,2.1-3.3C1771,84.2,1771.2,84.2,1771.4,84.2z"/>
</svg>
