<svg xmlns="http://www.w3.org/2000/svg" viewBox="0 0 128.5 128.5" enable-background="new 0 0 128.5 128.5"><circle cx="64.25" cy="64.25" r="64.25" fill="#78CACE"/><path d="M103.454 73.267c-3.893 0-8.387-1.787-12.661-6.06l-42-42c-3.447-3.447-7.175-5.364-10.782-5.544-3.084-.151-5.991.975-8.194 3.177-4.257 4.257-5.392 12.171.89 18.453l12 12-1.414 1.414-12-12c-7.2-7.2-5.833-16.338-.89-21.281 2.608-2.607 6.051-3.944 9.708-3.76 4.11.205 8.292 2.324 12.096 6.127l42 42c3.202 3.202 6.699 5.08 10.114 5.431 2.948.302 5.602-.561 7.472-2.431 3.512-3.513 3.915-10.67-3.5-18.086l-22-22c-4.579-4.578-6.24-10.291-4.56-15.673 1.474-4.718 5.339-8.186 10.087-9.05l.358 1.968c-4.015.73-7.286 3.673-8.537 7.678-1.452 4.648.03 9.628 4.064 13.663l22 22c3.745 3.745 5.972 7.806 6.442 11.745.428 3.588-.617 6.844-2.942 9.169-1.919 1.921-4.643 3.06-7.751 3.06z" fill="#D8D8D8"/><path d="M83.567 66.368c8.201 8.201 8.201 21.497 0 29.699-8.201 8.201-21.498 8.201-29.699 0l-13.435-13.435c-8.201-8.201-8.201-21.497 0-29.698s21.497-8.201 29.698 0l13.436 13.434z" fill="#EAEAEA"/><path d="M83.744 95.889c-8.202 8.202-21.675 8.378-29.877.176l-13.433-13.432c-8.202-8.202-8.114-21.587.088-29.789" fill="#F7F7F7"/><path d="M43.262 84.046l-2.12-2.12c-8.202-8.202-8.556-21.144-.355-29.346 8.202-8.202 21.145-7.847 29.346.355l2.12 2.12" fill="#D8D8D8"/><path d="M42.555 84.753l-2.12-2.12c-8.202-8.202-8.026-21.676.176-29.877 7.015 7.015 8.778 9.103 16.979 17.305" fill="#EAEAEA"/><path d="M55.648 62.491c1.36 1.36 1.36 3.565 0 4.925l-.025.024c-1.36 1.36-3.565 1.36-4.925 0l-6.388-6.389c-1.36-1.36-1.36-3.565 0-4.925l.024-.024c1.36-1.36 3.565-1.36 4.925 0l6.389 6.389z" fill="#EAEAEA"/><path d="M55.706 67.511c-1.36 1.36-3.571 1.366-4.931.006l-6.269-6.268c-1.36-1.36-1.357-3.568.003-4.928" fill="#fff"/></svg>