<svg xmlns="http://www.w3.org/2000/svg" viewBox="0 20.5 30 30" enable-background="new 0 20.5 30 30"><circle fill="#FCCC66" cx="15" cy="35.5" r="15"/><path fill="#FCF4DE" d="M15.7 28.3h6.1v2.1h-6.1z"/><path fill="#486380" d="M23.3 39.7v1.5c0 .6-.5 1-1 1h-10.4v-1.5h10.5c.5 0 .9-.5.9-1z"/><path fill="#FFFEFF" d="M23.3 38.8v.9c0 .5-.4 1-1 1h-9.7c.8 0 1.5-.7 1.5-1.5v-11.4c0-.8-.6-1.4-1.4-1.4h9.6c.5 0 1 .4 1 1v11.4zm-1.3-.2v-1.4h-1.4v1.4h1.4zm0-2.6v-1.4h-1.4v1.4h1.4zm0-2.5v-1.4h-1.4v1.4h1.4zm-.2-3.1v-2.1h-6.1v2.1h6.1zm-2.3 8.2v-1.4h-1.4v1.4h1.4zm0-2.6v-1.4h-1.4v1.4h1.4zm0-2.5v-1.4h-1.4v1.4h1.4zm-2.6 5.1v-1.4h-1.4v1.4h1.4zm0-2.6v-1.4h-1.4v1.4h1.4zm0-2.5v-1.4h-1.4v1.4h1.4z"/><path fill="#486380" d="M11.9 40.7h-.8c-.8 0-1.5-.7-1.5-1.5v-1.2c0 .7.7 1.3 1.4 1.3h1.7c.8 0 1.4-.6 1.4-1.3v1.2c0 .8-.7 1.5-1.5 1.5h-.7z"/><path fill="#49708B" d="M14.2 27.8v10.2c0 .7-.7 1.3-1.4 1.3h-1.8c-.8 0-1.4-.6-1.4-1.3v-10.2c0-.8.6-1.4 1.4-1.4h1.7c.9 0 1.5.6 1.5 1.4z"/><path fill="#FFFEFF" d="M12.8 26.4h-1.7c-.8 0-1.4.6-1.4 1.4v11.399999999999999c0 .8.7 1.5 1.5 1.5h-1.7c-.5 0-1-.4-1-1v-12.4c0-.5.4-1 1-1l3.3.1z"/><path fill="#486380" d="M11.9 40.7v1.5h-2.4c-.6 0-1-.5-1-1v-1.5c0 .5.4 1 1 1h2.4z"/><path fill="#FFFEFF" d="M10.4 44.6h-1.9c-1 0-1.8-.8-1.8-1.8v-12.5c0-1 .8-1.8 1.8-1.8v.7c-.6 0-1.2.5-1.2 1.2v12.5c0 .6.5 1.2 1.2 1.2h1.9c.6 0 1.2-.5 1.2-1.2v-2.4c0-.2.1-.3.3-.3.2 0 .3.1.3.3v2.4c0 .9-.8 1.7-1.8 1.7z"/><path fill="#486380" d="M16.1 28.8h5.3v1.2h-5.3z"/><g fill="#34495E"><path d="M20.6 37.6h1.4v1.4h-1.4zM20.6 35h1.4v1.4h-1.4zM20.6 32.4h1.4v1.4h-1.4zM18.1 37.6h1.4v1.4h-1.4zM18.1 35h1.4v1.4h-1.4zM18.1 32.4h1.4v1.4h-1.4zM15.5 37.6h1.4v1.4h-1.4zM15.5 35h1.4v1.4h-1.4zM15.5 32.4h1.4v1.4h-1.4z"/></g><g fill="#49708B"><path d="M20.6 37.2h1.4v1.4h-1.4zM20.6 34.6h1.4v1.4h-1.4zM20.6 32.1h1.4v1.4h-1.4zM18.1 37.2h1.4v1.4h-1.4zM18.1 34.6h1.4v1.4h-1.4zM18.1 32.1h1.4v1.4h-1.4zM15.5 37.2h1.4v1.4h-1.4zM15.5 34.6h1.4v1.4h-1.4zM15.5 32.1h1.4v1.4h-1.4z"/></g><path fill="#FCF4DE" d="M20.4 28.3l-1.2 2.1h-1.5l1.3-2.1z"/></svg>